<svg id="ep9ehuev3fg1" xmlns="http://www.w3.org/2000/svg" xmlns:xlink="http://www.w3.org/1999/xlink" viewBox="0 0 693.516000 485.172000" shape-rendering="geometricPrecision" text-rendering="geometricPrecision"><g id="ep9ehuev3fg2"><rect id="ep9ehuev3fg3" width="887.528000" height="666.187000" rx="0" ry="0" transform="matrix(1 0 0 1 -1 -1)" fill="none" stroke="none" stroke-width="1"/></g><g id="ep9ehuev3fg4"><circle id="ep9ehuev3fg5" r="7.707380" transform="matrix(1 0 0 1 42.90800000000000 7.70817000000000)" fill="rgb(230,230,230)" stroke="none" stroke-width="1"/><circle id="ep9ehuev3fg6" r="7.707380" transform="matrix(1 0 0 1 81.92260000000000 7.70817000000000)" fill="rgb(230,230,230)" stroke="none" stroke-width="1"/><circle id="ep9ehuev3fg7" r="7.707380" transform="matrix(1 0 0 1 120.93700000000000 7.70817000000000)" fill="rgb(230,230,230)" stroke="none" stroke-width="1"/><circle id="ep9ehuev3fg8" r="7.707380" transform="matrix(1 0 0 1 159.95200000000000 7.70817000000000)" fill="rgb(230,230,230)" stroke="none" stroke-width="1"/><circle id="ep9ehuev3fg9" r="7.707380" transform="matrix(1 0 0 1 198.96700000000001 7.70817000000000)" fill="rgb(230,230,230)" stroke="none" stroke-width="1"/><circle id="ep9ehuev3fg10" r="7.707380" transform="matrix(1 0 0 1 237.98099999999999 7.70817000000000)" fill="rgb(230,230,230)" stroke="none" stroke-width="1"/><circle id="ep9ehuev3fg11" r="7.707380" transform="matrix(1 0 0 1 276.99599999999998 7.70817000000000)" fill="rgb(230,230,230)" stroke="none" stroke-width="1"/><circle id="ep9ehuev3fg12" r="7.707380" transform="matrix(1 0 0 1 316.00999999999999 7.70817000000000)" fill="rgb(230,230,230)" stroke="none" stroke-width="1"/><circle id="ep9ehuev3fg13" r="7.707380" transform="matrix(1 0 0 1 355.02499999999998 7.70817000000000)" fill="rgb(230,230,230)" stroke="none" stroke-width="1"/><circle id="ep9ehuev3fg14" r="7.707380" transform="matrix(1 0 0 1 394.04000000000002 7.70817000000000)" fill="rgb(230,230,230)" stroke="none" stroke-width="1"/><circle id="ep9ehuev3fg15" r="7.707380" transform="matrix(1 0 0 1 42.90800000000000 47.21250000000000)" fill="rgb(230,230,230)" stroke="none" stroke-width="1"/><circle id="ep9ehuev3fg16" r="7.707380" transform="matrix(1 0 0 1 81.92260000000000 47.21250000000000)" fill="rgb(230,230,230)" stroke="none" stroke-width="1"/><circle id="ep9ehuev3fg17" r="7.707380" transform="matrix(1 0 0 1 120.93700000000000 47.21250000000000)" fill="rgb(230,230,230)" stroke="none" stroke-width="1"/><circle id="ep9ehuev3fg18" r="7.707380" transform="matrix(1 0 0 1 159.95200000000000 47.21250000000000)" fill="rgb(108,99,255)" stroke="none" stroke-width="1"/><circle id="ep9ehuev3fg19" r="7.707380" transform="matrix(1 0 0 1 198.96700000000001 47.21250000000000)" fill="rgb(230,230,230)" stroke="none" stroke-width="1"/><circle id="ep9ehuev3fg20" r="7.707380" transform="matrix(1 0 0 1 237.98099999999999 47.21250000000000)" fill="rgb(230,230,230)" stroke="none" stroke-width="1"/><circle id="ep9ehuev3fg21" r="7.707380" transform="matrix(1 0 0 1 276.99599999999998 47.21250000000000)" fill="rgb(230,230,230)" stroke="none" stroke-width="1"/><circle id="ep9ehuev3fg22" r="7.707380" transform="matrix(1 0 0 1 316.00999999999999 47.21250000000000)" fill="rgb(230,230,230)" stroke="none" stroke-width="1"/><circle id="ep9ehuev3fg23" r="7.707380" transform="matrix(1 0 0 1 355.02499999999998 47.21250000000000)" fill="rgb(230,230,230)" stroke="none" stroke-width="1"/><circle id="ep9ehuev3fg24" r="7.707380" transform="matrix(1 0 0 1 394.04000000000002 47.21250000000000)" fill="rgb(230,230,230)" stroke="none" stroke-width="1"/><circle id="ep9ehuev3fg25" r="7.707380" transform="matrix(1 0 0 1 42.90800000000000 86.71690000000000)" fill="rgb(230,230,230)" stroke="none" stroke-width="1"/><circle id="ep9ehuev3fg26" r="7.707380" transform="matrix(1 0 0 1 81.92260000000000 86.71690000000000)" fill="rgb(230,230,230)" stroke="none" stroke-width="1"/><circle id="ep9ehuev3fg27" r="7.707380" transform="matrix(1 0 0 1 120.93700000000000 86.71690000000000)" fill="rgb(230,230,230)" stroke="none" stroke-width="1"/><circle id="ep9ehuev3fg28" r="7.707380" transform="matrix(1 0 0 1 159.95200000000000 86.71690000000000)" fill="rgb(230,230,230)" stroke="none" stroke-width="1"/><circle id="ep9ehuev3fg29" r="7.707380" transform="matrix(1 0 0 1 198.96700000000001 86.71690000000000)" fill="rgb(230,230,230)" stroke="none" stroke-width="1"/><circle id="ep9ehuev3fg30" r="7.707380" transform="matrix(1 0 0 1 237.98099999999999 86.71690000000000)" fill="rgb(230,230,230)" stroke="none" stroke-width="1"/><circle id="ep9ehuev3fg31" r="7.707380" transform="matrix(1 0 0 1 276.99599999999998 86.71690000000000)" fill="rgb(230,230,230)" stroke="none" stroke-width="1"/><circle id="ep9ehuev3fg32" r="7.707380" transform="matrix(1 0 0 1 316.00999999999999 86.71690000000000)" fill="rgb(230,230,230)" stroke="none" stroke-width="1"/><circle id="ep9ehuev3fg33" r="7.707380" transform="matrix(1 0 0 1 355.02499999999998 86.71690000000000)" fill="rgb(230,230,230)" stroke="none" stroke-width="1"/><circle id="ep9ehuev3fg34" r="7.707380" transform="matrix(1 0 0 1 394.04000000000002 86.71690000000000)" fill="rgb(230,230,230)" stroke="none" stroke-width="1"/><circle id="ep9ehuev3fg35" r="7.707380" transform="matrix(1 0 0 1 42.90800000000000 126.22100000000000)" fill="rgb(230,230,230)" stroke="none" stroke-width="1"/><circle id="ep9ehuev3fg36" r="7.707380" transform="matrix(1 0 0 1 81.92260000000000 126.22100000000000)" fill="rgb(230,230,230)" stroke="none" stroke-width="1"/><circle id="ep9ehuev3fg37" r="7.707380" transform="matrix(1 0 0 1 120.93700000000000 126.22100000000000)" fill="rgb(230,230,230)" stroke="none" stroke-width="1"/><circle id="ep9ehuev3fg38" r="7.707380" transform="matrix(1 0 0 1 159.95200000000000 126.22100000000000)" fill="rgb(230,230,230)" stroke="none" stroke-width="1"/><circle id="ep9ehuev3fg39" r="7.707380" transform="matrix(1 0 0 1 198.96700000000001 126.22100000000000)" fill="rgb(230,230,230)" stroke="none" stroke-width="1"/><circle id="ep9ehuev3fg40" r="7.707380" transform="matrix(1 0 0 1 237.98099999999999 126.22100000000000)" fill="rgb(230,230,230)" stroke="none" stroke-width="1"/><circle id="ep9ehuev3fg41" r="7.707380" transform="matrix(1 0 0 1 276.99599999999998 126.22100000000000)" fill="rgb(230,230,230)" stroke="none" stroke-width="1"/><circle id="ep9ehuev3fg42" r="7.707380" transform="matrix(1 0 0 1 316.00999999999999 126.22100000000000)" fill="rgb(230,230,230)" stroke="none" stroke-width="1"/><circle id="ep9ehuev3fg43" r="7.707380" transform="matrix(1 0 0 1 355.02499999999998 126.22100000000000)" fill="rgb(230,230,230)" stroke="none" stroke-width="1"/><circle id="ep9ehuev3fg44" r="7.707380" transform="matrix(1 0 0 1 394.04000000000002 126.22100000000000)" fill="rgb(230,230,230)" stroke="none" stroke-width="1"/><circle id="ep9ehuev3fg45" r="7.707380" transform="matrix(1 0 0 1 42.90800000000000 165.72600000000000)" fill="rgb(230,230,230)" stroke="none" stroke-width="1"/><circle id="ep9ehuev3fg46" r="7.707380" transform="matrix(1 0 0 1 81.92738000000000 165.72600000000000)" fill="rgb(108,99,255)" stroke="none" stroke-width="1"/><circle id="ep9ehuev3fg47" r="7.707380" transform="matrix(1 0 0 1 120.93700000000000 165.72600000000000)" fill="rgb(230,230,230)" stroke="none" stroke-width="1"/><circle id="ep9ehuev3fg48" r="7.707380" transform="matrix(1 0 0 1 159.95200000000000 165.72600000000000)" fill="rgb(230,230,230)" stroke="none" stroke-width="1"/><circle id="ep9ehuev3fg49" r="7.707380" transform="matrix(1 0 0 1 198.96700000000001 165.72600000000000)" fill="rgb(230,230,230)" stroke="none" stroke-width="1"/><circle id="ep9ehuev3fg50" r="7.707380" transform="matrix(1 0 0 1 237.98099999999999 165.72600000000000)" fill="rgb(230,230,230)" stroke="none" stroke-width="1"/><circle id="ep9ehuev3fg51" r="7.707380" transform="matrix(1 0 0 1 276.99599999999998 165.72600000000000)" fill="rgb(230,230,230)" stroke="none" stroke-width="1"/><circle id="ep9ehuev3fg52" r="7.707380" transform="matrix(1 0 0 1 316.00999999999999 165.72600000000000)" fill="rgb(230,230,230)" stroke="none" stroke-width="1"/><circle id="ep9ehuev3fg53" r="7.707380" transform="matrix(1 0 0 1 355.02499999999998 165.72600000000000)" fill="rgb(230,230,230)" stroke="none" stroke-width="1"/><circle id="ep9ehuev3fg54" r="7.707380" transform="matrix(1 0 0 1 394.04000000000002 165.72600000000000)" fill="rgb(230,230,230)" stroke="none" stroke-width="1"/><circle id="ep9ehuev3fg55" r="7.707380" transform="matrix(1 0 0 1 42.90800000000000 205.22999999999999)" fill="rgb(230,230,230)" stroke="none" stroke-width="1"/><circle id="ep9ehuev3fg56" r="7.707380" transform="matrix(1 0 0 1 81.92260000000000 205.22999999999999)" fill="rgb(230,230,230)" stroke="none" stroke-width="1"/><circle id="ep9ehuev3fg57" r="7.707380" transform="matrix(1 0 0 1 120.93700000000000 205.22999999999999)" fill="rgb(230,230,230)" stroke="none" stroke-width="1"/><circle id="ep9ehuev3fg58" r="7.707380" transform="matrix(1 0 0 1 159.95200000000000 205.22999999999999)" fill="rgb(230,230,230)" stroke="none" stroke-width="1"/><circle id="ep9ehuev3fg59" r="7.707380" transform="matrix(1 0 0 1 198.96700000000001 205.22999999999999)" fill="rgb(230,230,230)" stroke="none" stroke-width="1"/><circle id="ep9ehuev3fg60" r="7.707380" transform="matrix(1 0 0 1 237.98099999999999 205.22999999999999)" fill="rgb(230,230,230)" stroke="none" stroke-width="1"/><circle id="ep9ehuev3fg61" r="7.707380" transform="matrix(1 0 0 1 276.99599999999998 205.22999999999999)" fill="rgb(230,230,230)" stroke="none" stroke-width="1"/><circle id="ep9ehuev3fg62" r="7.707380" transform="matrix(1 0 0 1 316.00999999999999 205.22999999999999)" fill="rgb(230,230,230)" stroke="none" stroke-width="1"/><circle id="ep9ehuev3fg63" r="7.707380" transform="matrix(1 0 0 1 355.02499999999998 205.22999999999999)" fill="rgb(230,230,230)" stroke="none" stroke-width="1"/><circle id="ep9ehuev3fg64" r="7.707380" transform="matrix(1 0 0 1 394.04000000000002 205.22999999999999)" fill="rgb(230,230,230)" stroke="none" stroke-width="1"/><circle id="ep9ehuev3fg65" r="7.707380" transform="matrix(1 0 0 1 42.90800000000000 244.73400000000001)" fill="rgb(230,230,230)" stroke="none" stroke-width="1"/><circle id="ep9ehuev3fg66" r="7.707380" transform="matrix(1 0 0 1 81.92260000000000 244.73400000000001)" fill="rgb(230,230,230)" stroke="none" stroke-width="1"/><circle id="ep9ehuev3fg67" r="7.707380" transform="matrix(1 0 0 1 120.93700000000000 244.73400000000001)" fill="rgb(108,99,255)" stroke="none" stroke-width="1"/><circle id="ep9ehuev3fg68" r="7.707380" transform="matrix(1 0 0 1 159.95200000000000 244.73400000000001)" fill="rgb(230,230,230)" stroke="none" stroke-width="1"/><circle id="ep9ehuev3fg69" r="7.707380" transform="matrix(1 0 0 1 198.96700000000001 244.73400000000001)" fill="rgb(230,230,230)" stroke="none" stroke-width="1"/><circle id="ep9ehuev3fg70" r="7.707380" transform="matrix(1 0 0 1 237.98099999999999 244.73400000000001)" fill="rgb(230,230,230)" stroke="none" stroke-width="1"/><circle id="ep9ehuev3fg71" r="7.707380" transform="matrix(1 0 0 1 276.99599999999998 244.73400000000001)" fill="rgb(230,230,230)" stroke="none" stroke-width="1"/><circle id="ep9ehuev3fg72" r="7.707380" transform="matrix(1 0 0 1 316.00999999999999 244.73400000000001)" fill="rgb(230,230,230)" stroke="none" stroke-width="1"/><circle id="ep9ehuev3fg73" r="7.707380" transform="matrix(1 0 0 1 355.02499999999998 244.73400000000001)" fill="rgb(230,230,230)" stroke="none" stroke-width="1"/><circle id="ep9ehuev3fg74" r="7.707380" transform="matrix(1 0 0 1 394.04000000000002 244.73400000000001)" fill="rgb(230,230,230)" stroke="none" stroke-width="1"/><circle id="ep9ehuev3fg75" r="7.707380" transform="matrix(1 0 0 1 42.90800000000000 284.23899999999998)" fill="rgb(230,230,230)" stroke="none" stroke-width="1"/><circle id="ep9ehuev3fg76" r="7.707380" transform="matrix(1 0 0 1 81.92260000000000 284.23899999999998)" fill="rgb(230,230,230)" stroke="none" stroke-width="1"/><circle id="ep9ehuev3fg77" r="7.707380" transform="matrix(1 0 0 1 120.93700000000000 284.23899999999998)" fill="rgb(230,230,230)" stroke="none" stroke-width="1"/><circle id="ep9ehuev3fg78" r="7.707380" transform="matrix(1 0 0 1 159.95200000000000 284.23899999999998)" fill="rgb(230,230,230)" stroke="none" stroke-width="1"/><circle id="ep9ehuev3fg79" r="7.707380" transform="matrix(1 0 0 1 198.96700000000001 284.23899999999998)" fill="rgb(230,230,230)" stroke="none" stroke-width="1"/><circle id="ep9ehuev3fg80" r="7.707380" transform="matrix(1 0 0 1 237.98099999999999 284.23899999999998)" fill="rgb(230,230,230)" stroke="none" stroke-width="1"/><circle id="ep9ehuev3fg81" r="7.707380" transform="matrix(1 0 0 1 276.99599999999998 284.23899999999998)" fill="rgb(230,230,230)" stroke="none" stroke-width="1"/><circle id="ep9ehuev3fg82" r="7.707380" transform="matrix(1 0 0 1 316.00999999999999 284.23899999999998)" fill="rgb(230,230,230)" stroke="none" stroke-width="1"/><circle id="ep9ehuev3fg83" r="7.707380" transform="matrix(1 0 0 1 355.02499999999998 284.23899999999998)" fill="rgb(230,230,230)" stroke="none" stroke-width="1"/><circle id="ep9ehuev3fg84" r="7.707380" transform="matrix(1 0 0 1 394.04000000000002 284.23899999999998)" fill="rgb(230,230,230)" stroke="none" stroke-width="1"/><circle id="ep9ehuev3fg85" r="7.707380" transform="matrix(1 0 0 1 42.90800000000000 323.74299999999999)" fill="rgb(230,230,230)" stroke="none" stroke-width="1"/><circle id="ep9ehuev3fg86" r="7.707380" transform="matrix(1 0 0 1 81.92260000000000 323.74299999999999)" fill="rgb(230,230,230)" stroke="none" stroke-width="1"/><circle id="ep9ehuev3fg87" r="7.707380" transform="matrix(1 0 0 1 120.93700000000000 323.74299999999999)" fill="rgb(230,230,230)" stroke="none" stroke-width="1"/><circle id="ep9ehuev3fg88" r="7.707380" transform="matrix(1 0 0 1 159.95200000000000 323.74299999999999)" fill="rgb(230,230,230)" stroke="none" stroke-width="1"/><circle id="ep9ehuev3fg89" r="7.707380" transform="matrix(1 0 0 1 198.96700000000001 323.74299999999999)" fill="rgb(230,230,230)" stroke="none" stroke-width="1"/><circle id="ep9ehuev3fg90" r="7.707380" transform="matrix(1 0 0 1 237.98099999999999 323.74299999999999)" fill="rgb(230,230,230)" stroke="none" stroke-width="1"/><circle id="ep9ehuev3fg91" r="7.707380" transform="matrix(1 0 0 1 276.99599999999998 323.74299999999999)" fill="rgb(230,230,230)" stroke="none" stroke-width="1"/><circle id="ep9ehuev3fg92" r="7.707380" transform="matrix(1 0 0 1 316.00999999999999 323.74299999999999)" fill="rgb(230,230,230)" stroke="none" stroke-width="1"/><circle id="ep9ehuev3fg93" r="7.707380" transform="matrix(1 0 0 1 355.02499999999998 323.74299999999999)" fill="rgb(230,230,230)" stroke="none" stroke-width="1"/><circle id="ep9ehuev3fg94" r="7.707380" transform="matrix(1 0 0 1 394.04000000000002 323.74299999999999)" fill="rgb(230,230,230)" stroke="none" stroke-width="1"/><circle id="ep9ehuev3fg95" r="7.707380" transform="matrix(1 0 0 1 42.90800000000000 363.24700000000001)" fill="rgb(230,230,230)" stroke="none" stroke-width="1"/><circle id="ep9ehuev3fg96" r="7.707380" transform="matrix(1 0 0 1 81.92260000000000 363.24700000000001)" fill="rgb(230,230,230)" stroke="none" stroke-width="1"/><circle id="ep9ehuev3fg97" r="7.707380" transform="matrix(1 0 0 1 120.93700000000000 363.24700000000001)" fill="rgb(230,230,230)" stroke="none" stroke-width="1"/><circle id="ep9ehuev3fg98" r="7.707380" transform="matrix(1 0 0 1 159.95200000000000 363.24700000000001)" fill="rgb(230,230,230)" stroke="none" stroke-width="1"/><circle id="ep9ehuev3fg99" r="7.707380" transform="matrix(1 0 0 1 198.96700000000001 363.24700000000001)" fill="rgb(230,230,230)" stroke="none" stroke-width="1"/><circle id="ep9ehuev3fg100" r="7.707380" transform="matrix(1 0 0 1 237.98099999999999 363.24700000000001)" fill="rgb(230,230,230)" stroke="none" stroke-width="1"/><circle id="ep9ehuev3fg101" r="7.707380" transform="matrix(1 0 0 1 276.99599999999998 363.24700000000001)" fill="rgb(230,230,230)" stroke="none" stroke-width="1"/><circle id="ep9ehuev3fg102" r="7.707380" transform="matrix(1 0 0 1 316.00999999999999 363.24700000000001)" fill="rgb(230,230,230)" stroke="none" stroke-width="1"/><circle id="ep9ehuev3fg103" r="7.707380" transform="matrix(1 0 0 1 355.02499999999998 363.24700000000001)" fill="rgb(230,230,230)" stroke="none" stroke-width="1"/><circle id="ep9ehuev3fg104" r="7.707380" transform="matrix(1 0 0 1 394.04000000000002 363.24700000000001)" fill="rgb(230,230,230)" stroke="none" stroke-width="1"/><polygon id="ep9ehuev3fg105" points="320.375000,305.854000 411.849000,145.565000 228.803000,145.565000 137.232000,304.171000 228.803000,462.778000 411.946000,462.778000 503.347000,304.468000 320.375000,305.854000" fill="rgb(63,61,86)" stroke="none" stroke-width="1"/><polygon id="ep9ehuev3fg106" points="526.065000,291.005000 526.236000,290.708000 434.665000,132.102000 434.567000,132.102000 343.093000,292.391000 526.065000,291.005000" fill="rgb(108,99,255)" stroke="none" stroke-width="1"/><path id="ep9ehuev3fg107" d="M649.238300,138.610630Q647.000010,135.995800,647.000010,130.954100Q647.000010,125.959850,649.238300,123.343980C650.795494,121.571513,653.077618,120.608284,655.433870,120.728980C657.811632,120.604939,660.117178,121.566828,661.701750,123.343980Q663.962220,125.959440,663.963050,130.954100Q663.963050,135.996410,661.701750,138.610630C660.117354,140.388075,657.811731,141.350161,655.433870,141.226080C653.077517,141.346814,650.795318,140.383388,649.238300,138.610630ZM658.120810,135.901510C658.793265,134.343386,659.083992,132.647227,658.968810,130.954100C659.079519,129.281571,658.779959,127.607318,658.096180,126.076940C657.580326,125.093875,656.543023,124.497265,655.433890,124.545710C654.344555,124.503179,653.331148,125.102128,652.843090,126.076940C652.176836,127.612179,651.885869,129.284040,651.994280,130.954100C651.883373,132.639351,652.174293,134.326847,652.843090,135.877680C653.330694,136.852965,654.344350,137.452222,655.433890,137.409320C656.546785,137.473060,657.595376,136.884626,658.120810,135.901510ZM655.105210,154.749100L674.517720,121.200190L679.747790,121.200190L660.287610,154.749100L655.105210,154.749100ZM673.128210,152.463970Q670.888690,149.848530,670.889920,144.759780Q670.889920,139.766140,673.128210,137.173490C674.782388,135.514618,677.028753,134.582278,679.371435,134.582278C681.714117,134.582278,683.960482,135.514618,685.614660,137.173490Q687.851730,139.765490,687.852950,144.807020Q687.852950,149.849350,685.614660,152.463970C683.968004,154.136917,681.718822,155.079011,679.371435,155.079011C677.024048,155.079011,674.774866,154.136917,673.128210,152.463970ZM682.009070,149.731020C682.677817,148.180025,682.968732,146.492405,682.857880,144.807020C682.968419,143.134714,682.669154,141.460698,681.986060,139.930270C681.450296,138.983738,680.446752,138.398619,679.359110,138.398619C678.271468,138.398619,677.267924,138.983738,676.732160,139.930270C676.066597,141.465556,675.775925,143.137181,675.884160,144.807020C675.773536,146.492314,676.064154,148.179819,676.732160,149.731020C677.273178,150.677882,678.280088,151.262239,679.370615,151.262239C680.461142,151.262239,681.468052,150.677882,682.009070,149.731020Z" fill="rgb(119,0,255)" stroke="none" stroke-width="1"/><path id="ep9ehuev3fg108" d="M2.238300,428.008170Q0,425.393330,0,420.351630Q0,415.357380,2.238300,412.741520C3.795487,410.969049,6.077609,410.005819,8.433860,410.126520C10.811623,410.002473,13.117172,410.964363,14.701740,412.741520Q16.962210,415.356960,16.963040,420.351630Q16.963040,425.393950,14.701740,428.008170C13.117342,429.785612,10.811721,430.747698,8.433860,430.623620C6.077510,430.744353,3.795315,429.780926,2.238300,428.008170ZM11.120800,425.299040C11.793256,423.740916,12.083983,422.044757,11.968800,420.351630C12.079507,418.679100,11.779943,417.004847,11.096160,415.474470C10.580302,414.491408,9.543002,413.894800,8.433870,413.943240C7.344537,413.900714,6.331132,414.499662,5.843070,415.474470C5.176821,417.009710,4.885854,418.681571,4.994260,420.351630C4.883360,422.036881,5.174279,423.724376,5.843070,425.275210C6.330674,426.250495,7.344330,426.849752,8.433870,426.806850C9.546770,426.870599,10.595368,426.282163,11.120800,425.299040ZM8.105190,444.146630L27.517690,410.597720L32.747760,410.597720L13.287600,444.146630L8.105190,444.146630ZM26.128190,441.861500Q23.888680,439.246060,23.889900,434.157310Q23.889900,429.163680,26.128190,426.571020C27.782368,424.912148,30.028733,423.979808,32.371415,423.979808C34.714097,423.979808,36.960462,424.912148,38.614640,426.571020Q40.851710,429.163020,40.852940,434.204550Q40.852940,439.246870,38.614640,441.861500C36.967984,443.534447,34.718802,444.476541,32.371415,444.476541C30.024028,444.476541,27.774846,443.534447,26.128190,441.861500ZM35.009050,439.128550C35.677797,437.577555,35.968712,435.889935,35.857860,434.204550C35.968397,432.532248,35.669136,430.858236,34.986050,429.327810C34.450291,428.381268,33.446743,427.796140,32.359095,427.796140C31.271447,427.796140,30.267899,428.381268,29.732140,429.327810C29.066579,430.863093,28.775906,432.534715,28.884140,434.204550C28.773521,435.889844,29.064139,437.577348,29.732140,439.128550C30.273154,440.075418,31.280066,440.659780,32.370595,440.659780C33.461124,440.659780,34.468036,440.075418,35.009050,439.128550Z" fill="rgb(164,28,255)" stroke="none" stroke-width="1"/><polygon id="ep9ehuev3fg109" points="439.283000,234.863000 438.098000,234.548000 463.952000,137.291000 613.913000,137.291000 613.913000,138.517000 464.894000,138.517000 439.283000,234.863000" fill="rgb(255,255,255)" stroke="none" stroke-width="1"/><path id="ep9ehuev3fg110" d="M626.166390,149.769960C619.060694,149.769960,613.300390,144.009656,613.300390,136.903960C613.300390,129.798264,619.060694,124.037960,626.166390,124.037960C633.272086,124.037960,639.032390,129.798264,639.032390,136.903960C639.024333,144.006316,633.268746,149.761903,626.166390,149.769960ZM626.166390,125.263330C621.458184,125.263318,617.213571,128.099463,615.411810,132.449275C613.610049,136.799087,614.605967,141.805943,617.935167,145.135152C621.264367,148.464361,626.271221,149.460291,630.621037,147.658541C634.970853,145.856791,637.807010,141.612186,637.807010,136.903980C637.799714,130.478063,632.592307,125.270643,626.166390,125.263330Z" fill="rgb(255,255,255)" stroke="none" stroke-width="1"/><circle id="ep9ehuev3fg111" r="4.901330" transform="matrix(1 0 0 1 626.16600000000005 137.90400000000000)" fill="rgb(108,99,255)" stroke="none" stroke-width="1"/><polygon id="ep9ehuev3fg112" points="249.956000,330.343000 251.141000,330.658000 225.287000,427.914000 75.326000,427.914000 75.326000,426.689000 224.345000,426.689000 249.956000,330.343000" fill="rgb(255,255,255)" stroke="none" stroke-width="1"/><path id="ep9ehuev3fg113" d="M63.072570,414.435530C68.276381,414.435530,72.967792,417.570230,74.959204,422.377925C76.950616,427.185620,75.849856,432.719516,72.170206,436.399166C68.490556,440.078816,62.956660,441.179576,58.148965,439.188164C53.341270,437.196752,50.206570,432.505341,50.206570,427.301530C50.214632,420.199177,55.970217,414.443592,63.072570,414.435530ZM63.072570,438.942160C69.501523,438.942160,74.713220,433.730463,74.713220,427.301510C74.713220,420.872557,69.501523,415.660860,63.072570,415.660860C56.643617,415.660860,51.431920,420.872557,51.431920,427.301510C51.439211,433.727441,56.646639,438.934869,63.072570,438.942160Z" fill="rgb(255,255,255)" stroke="none" stroke-width="1"/><circle id="ep9ehuev3fg114" r="4.901330" transform="matrix(1 0 0 1 63.07260000000000 427.30200000000002)" fill="rgb(108,99,255)" stroke="none" stroke-width="1"/></g><script><![CDATA[!function(t,n){"object"==typeof exports&&"undefined"!=typeof module?module.exports=n():"function"==typeof define&&define.amd?define(n):(t="undefined"!=typeof globalThis?globalThis:t||self).__SVGATOR_PLAYER__=n()}(this,(function(){"use strict";function t(n){return(t="function"==typeof Symbol&&"symbol"==typeof Symbol.iterator?function(t){return typeof t}:function(t){return t&&"function"==typeof Symbol&&t.constructor===Symbol&&t!==Symbol.prototype?"symbol":typeof t})(n)}function n(t,n){if(!(t instanceof n))throw new TypeError("Cannot call a class as a function")}function r(t,n){for(var r=0;r<n.length;r++){var e=n[r];e.enumerable=e.enumerable||!1,e.configurable=!0,"value"in e&&(e.writable=!0),Object.defineProperty(t,e.key,e)}}function e(t,n,e){return n&&r(t.prototype,n),e&&r(t,e),t}function i(t){return(i=Object.setPrototypeOf?Object.getPrototypeOf:function(t){return t.__proto__||Object.getPrototypeOf(t)})(t)}function o(t,n){return(o=Object.setPrototypeOf||function(t,n){return t.__proto__=n,t})(t,n)}function u(t,n){return!n||"object"!=typeof n&&"function"!=typeof n?function(t){if(void 0===t)throw new ReferenceError("this hasn't been initialised - super() hasn't been called");return t}(t):n}function a(t){var n=function(){if("undefined"==typeof Reflect||!Reflect.construct)return!1;if(Reflect.construct.sham)return!1;if("function"==typeof Proxy)return!0;try{return Boolean.prototype.valueOf.call(Reflect.construct(Boolean,[],(function(){}))),!0}catch(t){return!1}}();return function(){var r,e=i(t);if(n){var o=i(this).constructor;r=Reflect.construct(e,arguments,o)}else r=e.apply(this,arguments);return u(this,r)}}function l(t,n,r){return(l="undefined"!=typeof Reflect&&Reflect.get?Reflect.get:function(t,n,r){var e=function(t,n){for(;!Object.prototype.hasOwnProperty.call(t,n)&&null!==(t=i(t)););return t}(t,n);if(e){var o=Object.getOwnPropertyDescriptor(e,n);return o.get?o.get.call(r):o.value}})(t,n,r||t)}var f=Math.abs;function s(t){return t}function c(t,n,r){var e=1-r;return 3*r*e*(t*e+n*r)+r*r*r}function h(){var t=arguments.length>0&&void 0!==arguments[0]?arguments[0]:0,n=arguments.length>1&&void 0!==arguments[1]?arguments[1]:0,r=arguments.length>2&&void 0!==arguments[2]?arguments[2]:1,e=arguments.length>3&&void 0!==arguments[3]?arguments[3]:1;return t<0||t>1||r<0||r>1?null:f(t-n)<=1e-5&&f(r-e)<=1e-5?s:function(i){if(i<=0)return t>0?i*n/t:0===n&&r>0?i*e/r:0;if(i>=1)return r<1?1+(i-1)*(e-1)/(r-1):1===r&&t<1?1+(i-1)*(n-1)/(t-1):1;for(var o,u=0,a=1;u<a;){var l=c(t,r,o=(u+a)/2);if(f(i-l)<1e-5)break;l<i?u=o:a=o}return c(n,e,o)}}function v(){return 1}function y(t){return 1===t?1:0}function d(){var t=arguments.length>0&&void 0!==arguments[0]?arguments[0]:1,n=arguments.length>1&&void 0!==arguments[1]?arguments[1]:0;if(1===t){if(0===n)return y;if(1===n)return v}var r=1/t;return function(t){return t>=1?1:(t+=n*r)-t%r}}function g(t){var n=arguments.length>1&&void 0!==arguments[1]?arguments[1]:2;if(Number.isInteger(t))return t;var r=Math.pow(10,n);return Math.round(t*r)/r}var p=Math.PI/180;function m(t,n,r){return t>=.5?r:n}function b(t,n,r){return 0===t||n===r?n:t*(r-n)+n}function w(t,n,r){var e=b(t,n,r);return e<=0?0:e}function x(t,n,r){return 0===t?n:1===t?r:{x:b(t,n.x,r.x),y:b(t,n.y,r.y)}}function k(t,n,r){var e=function(t,n,r){return Math.round(b(t,n,r))}(t,n,r);return e<=0?0:e>=255?255:e}function A(t,n,r){return 0===t?n:1===t?r:{r:k(t,n.r,r.r),g:k(t,n.g,r.g),b:k(t,n.b,r.b),a:b(t,null==n.a?1:n.a,null==r.a?1:r.a)}}function _(t,n,r){if(0===t)return n;if(1===t)return r;var e=n.length;if(e!==r.length)return m(t,n,r);for(var i=[],o=0;o<e;o++)i.push(A(t,n[o],r[o]));return i}function S(t,n){for(var r=[],e=0;e<t;e++)r.push(n);return r}function O(t,n){if(--n<=0)return t;var r=(t=Object.assign([],t)).length;do{for(var e=0;e<r;e++)t.push(t[e])}while(--n>0);return t}var M,j=function(){function t(r){n(this,t),this.list=r,this.length=r.length}return e(t,[{key:"setAttribute",value:function(t,n){for(var r=this.list,e=0;e<this.length;e++)r[e].setAttribute(t,n)}},{key:"removeAttribute",value:function(t){for(var n=this.list,r=0;r<this.length;r++)n[r].removeAttribute(t)}},{key:"style",value:function(t,n){for(var r=this.list,e=0;e<this.length;e++)r[e].style[t]=n}}]),t}(),F=/-./g,P=function(t,n){return n.toUpperCase()};function B(t){return"function"==typeof t?t:m}function I(t){return t?"function"==typeof t?t:Array.isArray(t)?function(t){var n=arguments.length>1&&void 0!==arguments[1]?arguments[1]:s;if(!Array.isArray(t))return n;switch(t.length){case 1:return d(t[0])||n;case 2:return d(t[0],t[1])||n;case 4:return h(t[0],t[1],t[2],t[3])||n}return n}(t,null):function(t,n){var r=arguments.length>2&&void 0!==arguments[2]?arguments[2]:s;switch(t){case"linear":return s;case"steps":return d(n.steps||1,n.jump||0)||r;case"bezier":case"cubic-bezier":return h(n.x1||0,n.y1||0,n.x2||0,n.y2||0)||r}return r}(t.type,t.value,null):null}function R(t,n,r){var e=arguments.length>3&&void 0!==arguments[3]&&arguments[3],i=n.length-1;if(t<=n[0].t)return e?[0,0,n[0].v]:n[0].v;if(t>=n[i].t)return e?[i,1,n[i].v]:n[i].v;var o,u=n[0],a=null;for(o=1;o<=i;o++){if(!(t>n[o].t)){a=n[o];break}u=n[o]}return null==a?e?[i,1,n[i].v]:n[i].v:u.t===a.t?e?[o,1,a.v]:a.v:(t=(t-u.t)/(a.t-u.t),u.e&&(t=u.e(t)),e?[o,t,r(t,u.v,a.v)]:r(t,u.v,a.v))}function q(t,n){var r=arguments.length>2&&void 0!==arguments[2]?arguments[2]:null;return t&&t.length?"function"!=typeof n?null:("function"!=typeof r&&(r=null),function(e){var i=R(e,t,n);return null!=i&&r&&(i=r(i)),i}):null}function E(t,n){return t.t-n.t}function T(n,r,e,i,o){var u,a="@"===e[0],l="#"===e[0],f=M[e],s=m;switch(a?(u=e.substr(1),e=u.replace(F,P)):l&&(e=e.substr(1)),t(f)){case"function":if(s=f(i,o,R,I,e,a,r,n),l)return s;break;case"string":s=q(i,B(f));break;case"object":if((s=q(i,B(f.i),f.f))&&"function"==typeof f.u)return f.u(r,s,e,a,n)}return s?function(t,n,r){var e=arguments.length>3&&void 0!==arguments[3]&&arguments[3];if(e)return t instanceof j?function(e){return t.style(n,r(e))}:function(e){return t.style[n]=r(e)};if(Array.isArray(n)){var i=n.length;return function(e){var o=r(e);if(null==o)for(var u=0;u<i;u++)t[u].removeAttribute(n);else for(var a=0;a<i;a++)t[a].setAttribute(n,o)}}return function(e){var i=r(e);null==i?t.removeAttribute(n):t.setAttribute(n,i)}}(r,e,s,a):null}function N(n,r,e,i){if(!i||"object"!==t(i))return null;var o=null,u=null;return Array.isArray(i)?u=function(t){if(!t||!t.length)return null;for(var n=0;n<t.length;n++)t[n].e&&(t[n].e=I(t[n].e));return t.sort(E)}(i):(u=i.keys,o=i.data||null),u?T(n,r,e,u,o):null}function C(t,n,r){if(!r)return null;var e=[];for(var i in r)if(r.hasOwnProperty(i)){var o=N(t,n,i,r[i]);o&&e.push(o)}return e.length?e:null}function z(t,n){if(!n.duration||n.duration<0)return null;var r=function(t,n){if(!n)return null;var r=[];if(Array.isArray(n))for(var e=n.length,i=0;i<e;i++){var o=n[i];if(2===o.length){var u=null;if("string"==typeof o[0])u=t.getElementById(o[0]);else if(Array.isArray(o[0])){u=[];for(var a=0;a<o[0].length;a++)if("string"==typeof o[0][a]){var l=t.getElementById(o[0][a]);l&&u.push(l)}u=u.length?1===u.length?u[0]:new j(u):null}if(u){var f=C(t,u,o[1]);f&&(r=r.concat(f))}}}else for(var s in n)if(n.hasOwnProperty(s)){var c=t.getElementById(s);if(c){var h=C(t,c,n[s]);h&&(r=r.concat(h))}}return r.length?r:null}(t,n.elements);return r?function(t,n){var r=arguments.length>2&&void 0!==arguments[2]?arguments[2]:1/0,e=arguments.length>3&&void 0!==arguments[3]?arguments[3]:1,i=arguments.length>4&&void 0!==arguments[4]&&arguments[4],o=arguments.length>5&&void 0!==arguments[5]?arguments[5]:1,u=t.length,a=e>0?n:0;i&&r%2==0&&(a=n-a);var l=null;return function(f,s){var c=f%n,h=1+(f-c)/n;s*=e,i&&h%2==0&&(s=-s);var v=!1;if(h>r)c=a,v=!0,-1===o&&(c=e>0?0:n);else if(s<0&&(c=n-c),c===l)return!1;l=c;for(var y=0;y<u;y++)t[y](c);return v}}(r,n.duration,n.iterations||1/0,n.direction||1,!!n.alternate,n.fill||1):null}function L(t,n){if(M=n,!t||!t.root||!Array.isArray(t.animations))return null;for(var r=document.getElementsByTagName("svg"),e=!1,i=0;i<r.length;i++)if(r[i].id===t.root&&!r[i].svgatorAnimation){(e=r[i]).svgatorAnimation=!0;break}if(!e)return null;var o=t.animations.map((function(t){return z(e,t)})).filter((function(t){return!!t}));return o.length?{element:e,animations:o,animationSettings:t.animationSettings,options:t.options||void 0}:null}var D=function(){function t(r,e){var i=arguments.length>2&&void 0!==arguments[2]?arguments[2]:{};n(this,t),this._id=0,this._running=!1,this._rollingBack=!1,this._animations=r,this.duration=e.duration,this.alternate=e.alternate,this.fill=e.fill,this.iterations=e.iterations,this.direction=i.direction||1,this.speed=i.speed||1,this.fps=i.fps||100,this.offset=i.offset||0,this.rollbackStartOffset=0}return e(t,[{key:"_rollback",value:function(){var t=this,n=1/0,r=null;this.rollbackStartOffset=this.offset,this._rollingBack||(this._rollingBack=!0,this._running=!0);this._id=window.requestAnimationFrame((function e(i){if(t._rollingBack){null==r&&(r=i);var o=i-r,u=t.rollbackStartOffset-o,a=Math.round(u*t.speed);if(a>t.duration&&n!=1/0){var l=!!t.alternate&&a/t.duration%2>1,f=a%t.duration;a=(f+=l?t.duration:0)||t.duration}var s=t.fps?1e3/t.fps:0,c=Math.max(0,a);if(c<n-s){t.offset=c,n=c;for(var h=t._animations,v=h.length,y=0;y<v;y++)h[y](c,t.direction)}var d=!1;if(t.iterations>0&&-1===t.fill){var g=t.iterations*t.duration,p=g==a;a=p?0:a,t.offset=p?0:t.offset,d=a>g}a>0&&t.offset>=a&&!d?t._id=window.requestAnimationFrame(e):t.stop()}}))}},{key:"_start",value:function(){var t=this,n=arguments.length>0&&void 0!==arguments[0]?arguments[0]:0,r=-1/0,e=null,i={},o=function o(u){t._running=!0,null==e&&(e=u);var a=Math.round((u-e+n)*t.speed),l=t.fps?1e3/t.fps:0;if(a>r+l&&!t._rollingBack){t.offset=a,r=a;for(var f=t._animations,s=f.length,c=0,h=0;h<s;h++)i[h]?c++:(i[h]=f[h](a,t.direction),i[h]&&c++);if(c===s)return void t._stop()}t._id=window.requestAnimationFrame(o)};this._id=window.requestAnimationFrame(o)}},{key:"_stop",value:function(){this._id&&window.cancelAnimationFrame(this._id),this._running=!1,this._rollingBack=!1}},{key:"play",value:function(){!this._rollingBack&&this._running||(this._rollingBack=!1,this.rollbackStartOffset>this.duration&&(this.offset=this.rollbackStartOffset-(this.rollbackStartOffset-this.offset)%this.duration,this.rollbackStartOffset=0),this._start(this.offset))}},{key:"stop",value:function(){this._stop(),this.offset=0,this.rollbackStartOffset=0;var t=this.direction,n=this._animations;window.requestAnimationFrame((function(){for(var r=0;r<n.length;r++)n[r](0,t)}))}},{key:"reachedToEnd",value:function(){return this.iterations>0&&this.offset>=this.iterations*this.duration}},{key:"restart",value:function(){this._stop(),this.offset=0,this._start()}},{key:"pause",value:function(){this._stop()}},{key:"reverse",value:function(){this.direction=-this.direction}}],[{key:"build",value:function(n,r){return(n=L(n,r))?{el:n.element,options:n.options||{},player:new t(n.animations,n.animationSettings,n.options)}:null}}]),t}();!function(){for(var t=0,n=["ms","moz","webkit","o"],r=0;r<n.length&&!window.requestAnimationFrame;++r)window.requestAnimationFrame=window[n[r]+"RequestAnimationFrame"],window.cancelAnimationFrame=window[n[r]+"CancelAnimationFrame"]||window[n[r]+"CancelRequestAnimationFrame"];window.requestAnimationFrame||(window.requestAnimationFrame=function(n){var r=Date.now(),e=Math.max(0,16-(r-t)),i=window.setTimeout((function(){n(r+e)}),e);return t=r+e,i},window.cancelAnimationFrame=window.clearTimeout)}();var Q=/\.0+$/g;function U(t){return Number.isInteger(t)?t+"":t.toFixed(6).replace(Q,"")}function V(t){var n=arguments.length>1&&void 0!==arguments[1]?arguments[1]:" ";return t&&t.length?t.map(U).join(n):""}function $(t){return t?null==t.a||t.a>=1?"rgb("+t.r+","+t.g+","+t.b+")":"rgba("+t.r+","+t.g+","+t.b+","+t.a+")":"transparent"}var G={f:null,i:function(t,n,r){return 0===t?n:1===t?r:{x:w(t,n.x,r.x),y:w(t,n.y,r.y)}},u:function(t,n){return function(r){var e=n(r);t.setAttribute("rx",U(e.x)),t.setAttribute("ry",U(e.y))}}},H={f:null,i:function(t,n,r){return 0===t?n:1===t?r:{width:w(t,n.width,r.width),height:w(t,n.height,r.height)}},u:function(t,n){return function(r){var e=n(r);t.setAttribute("width",U(e.width)),t.setAttribute("height",U(e.height))}}},Y=Math.sin,Z=Math.cos,J=Math.acos,K=Math.asin,W=Math.tan,X=Math.atan2,tt=Math.PI/180,nt=180/Math.PI,rt=Math.sqrt,et=function(){function t(){var r=arguments.length>0&&void 0!==arguments[0]?arguments[0]:1,e=arguments.length>1&&void 0!==arguments[1]?arguments[1]:0,i=arguments.length>2&&void 0!==arguments[2]?arguments[2]:0,o=arguments.length>3&&void 0!==arguments[3]?arguments[3]:1,u=arguments.length>4&&void 0!==arguments[4]?arguments[4]:0,a=arguments.length>5&&void 0!==arguments[5]?arguments[5]:0;n(this,t),this.m=[r,e,i,o,u,a],this.i=null,this.w=null,this.s=null}return e(t,[{key:"determinant",get:function(){var t=this.m;return t[0]*t[3]-t[1]*t[2]}},{key:"isIdentity",get:function(){if(null===this.i){var t=this.m;this.i=1===t[0]&&0===t[1]&&0===t[2]&&1===t[3]&&0===t[4]&&0===t[5]}return this.i}},{key:"point",value:function(t,n){var r=this.m;return{x:r[0]*t+r[2]*n+r[4],y:r[1]*t+r[3]*n+r[5]}}},{key:"translateSelf",value:function(){var t=arguments.length>0&&void 0!==arguments[0]?arguments[0]:0,n=arguments.length>1&&void 0!==arguments[1]?arguments[1]:0;if(!t&&!n)return this;var r=this.m;return r[4]+=r[0]*t+r[2]*n,r[5]+=r[1]*t+r[3]*n,this.w=this.s=this.i=null,this}},{key:"rotateSelf",value:function(){var t=arguments.length>0&&void 0!==arguments[0]?arguments[0]:0;if(t%=360){var n=Y(t*=tt),r=Z(t),e=this.m,i=e[0],o=e[1];e[0]=i*r+e[2]*n,e[1]=o*r+e[3]*n,e[2]=e[2]*r-i*n,e[3]=e[3]*r-o*n,this.w=this.s=this.i=null}return this}},{key:"scaleSelf",value:function(){var t=arguments.length>0&&void 0!==arguments[0]?arguments[0]:1,n=arguments.length>1&&void 0!==arguments[1]?arguments[1]:1;if(1!==t||1!==n){var r=this.m;r[0]*=t,r[1]*=t,r[2]*=n,r[3]*=n,this.w=this.s=this.i=null}return this}},{key:"skewSelf",value:function(t,n){if(n%=360,(t%=360)||n){var r=this.m,e=r[0],i=r[1],o=r[2],u=r[3];t&&(t=W(t*tt),r[2]+=e*t,r[3]+=i*t),n&&(n=W(n*tt),r[0]+=o*n,r[1]+=u*n),this.w=this.s=this.i=null}return this}},{key:"resetSelf",value:function(){var t=arguments.length>0&&void 0!==arguments[0]?arguments[0]:1,n=arguments.length>1&&void 0!==arguments[1]?arguments[1]:0,r=arguments.length>2&&void 0!==arguments[2]?arguments[2]:0,e=arguments.length>3&&void 0!==arguments[3]?arguments[3]:1,i=arguments.length>4&&void 0!==arguments[4]?arguments[4]:0,o=arguments.length>5&&void 0!==arguments[5]?arguments[5]:0,u=this.m;return u[0]=t,u[1]=n,u[2]=r,u[3]=e,u[4]=i,u[5]=o,this.w=this.s=this.i=null,this}},{key:"recomposeSelf",value:function(){var t=arguments.length>0&&void 0!==arguments[0]?arguments[0]:null,n=arguments.length>1&&void 0!==arguments[1]?arguments[1]:null,r=arguments.length>2&&void 0!==arguments[2]?arguments[2]:null,e=arguments.length>3&&void 0!==arguments[3]?arguments[3]:null,i=arguments.length>4&&void 0!==arguments[4]?arguments[4]:null;return this.isIdentity||this.resetSelf(),t&&(t.x||t.y)&&this.translateSelf(t.x,t.y),n&&this.rotateSelf(n),r&&(r.x&&this.skewSelf(r.x,0),r.y&&this.skewSelf(0,r.y)),!e||1===e.x&&1===e.y||this.scaleSelf(e.x,e.y),i&&(i.x||i.y)&&this.translateSelf(i.x,i.y),this}},{key:"decompose",value:function(){var t=arguments.length>0&&void 0!==arguments[0]?arguments[0]:0,n=arguments.length>1&&void 0!==arguments[1]?arguments[1]:0,r=this.m,e=r[0]*r[0]+r[1]*r[1],i=[[r[0],r[1]],[r[2],r[3]]],o=rt(e);if(0===o)return{origin:{x:r[4],y:r[5]},translate:{x:t,y:n},scale:{x:0,y:0},skew:{x:0,y:0},rotate:0};i[0][0]/=o,i[0][1]/=o;var u=r[0]*r[3]-r[1]*r[2]<0;u&&(o=-o);var a=i[0][0]*i[1][0]+i[0][1]*i[1][1];i[1][0]-=i[0][0]*a,i[1][1]-=i[0][1]*a;var l=rt(i[1][0]*i[1][0]+i[1][1]*i[1][1]);if(0===l)return{origin:{x:r[4],y:r[5]},translate:{x:t,y:n},scale:{x:o,y:0},skew:{x:0,y:0},rotate:0};i[1][0]/=l,i[1][1]/=l,a/=l;var f=0;return i[1][1]<0?(f=J(i[1][1])*nt,i[0][1]<0&&(f=360-f)):f=K(i[0][1])*nt,u&&(f=-f),a=X(a,rt(i[0][0]*i[0][0]+i[0][1]*i[0][1]))*nt,u&&(a=-a),{origin:{x:r[4],y:r[5]},translate:{x:t,y:n},scale:{x:o,y:l},skew:{x:a,y:0},rotate:f}}},{key:"toString",value:function(){return null===this.s&&(this.s="matrix("+this.m.map(ot).join(" ")+")"),this.s}}]),t}(),it=/\.0+$/;function ot(t){return Number.isInteger(t)?t:t.toFixed(14).replace(it,"")}function ut(t,n,r){return t+(n-t)*r}function at(t,n,r){var e=arguments.length>3&&void 0!==arguments[3]&&arguments[3],i={x:ut(t.x,n.x,r),y:ut(t.y,n.y,r)};return e&&(i.a=lt(t,n)),i}function lt(t,n){return Math.atan2(n.y-t.y,n.x-t.x)}Object.freeze({M:2,L:2,Z:0,H:1,V:1,C:6,Q:4,T:2,S:4,A:7});var ft={},st=null;function ct(n){var r=function(){if(st)return st;if("object"!==("undefined"==typeof document?"undefined":t(document)))return{};var n=document.createElementNS("http://www.w3.org/2000/svg","svg");return n.style.position="absolute",n.style.opacity="0.01",n.style.zIndex="-9999",n.style.left="-9999px",n.style.width="1px",n.style.height="1px",st={svg:n}}().svg;if(!r)return function(t){return null};var e=document.createElementNS(r.namespaceURI,"path");e.setAttributeNS(null,"d",n),e.setAttributeNS(null,"fill","none"),e.setAttributeNS(null,"stroke","none"),r.appendChild(e);var i=e.getTotalLength();return function(t){var n=e.getPointAtLength(i*t);return{x:n.x,y:n.y}}}function ht(t){return ft[t]?ft[t]:ft[t]=ct(t)}function vt(t,n,r,e){if(!t||!e)return!1;var i=["M",t.x,t.y];if(n&&r&&(i.push("C"),i.push(n.x),i.push(n.y),i.push(r.x),i.push(r.y)),n?!r:r){var o=n||r;i.push("Q"),i.push(o.x),i.push(o.y)}return n||r||i.push("L"),i.push(e.x),i.push(e.y),i.join(" ")}function yt(t,n,r,e){var i=arguments.length>4&&void 0!==arguments[4]?arguments[4]:1,o=vt(t,n,r,e),u=ht(o);try{return u(i)}catch(t){return null}}function dt(t,n,r,e){var i=1-e;return i*i*t+2*i*e*n+e*e*r}function gt(t,n,r,e){return 2*(1-e)*(n-t)+2*e*(r-n)}function pt(t,n,r,e){var i=arguments.length>4&&void 0!==arguments[4]&&arguments[4],o=yt(t,n,null,r,e);return o||(o={x:dt(t.x,n.x,r.x,e),y:dt(t.y,n.y,r.y,e)}),i&&(o.a=mt(t,n,r,e)),o}function mt(t,n,r,e){return Math.atan2(gt(t.y,n.y,r.y,e),gt(t.x,n.x,r.x,e))}function bt(t,n,r,e,i){var o=i*i;return i*o*(e-t+3*(n-r))+3*o*(t+r-2*n)+3*i*(n-t)+t}function wt(t,n,r,e,i){var o=1-i;return 3*(o*o*(n-t)+2*o*i*(r-n)+i*i*(e-r))}function xt(t,n,r,e,i){var o=arguments.length>5&&void 0!==arguments[5]&&arguments[5],u=yt(t,n,r,e,i);return u||(u={x:bt(t.x,n.x,r.x,e.x,i),y:bt(t.y,n.y,r.y,e.y,i)}),o&&(u.a=kt(t,n,r,e,i)),u}function kt(t,n,r,e,i){return Math.atan2(wt(t.y,n.y,r.y,e.y,i),wt(t.x,n.x,r.x,e.x,i))}function At(t,n,r){var e=arguments.length>3&&void 0!==arguments[3]&&arguments[3];if(St(n)){if(Ot(r))return pt(n,r.start,r,t,e)}else if(St(r)){if(n.end)return pt(n,n.end,r,t,e)}else{if(n.end)return r.start?xt(n,n.end,r.start,r,t,e):pt(n,n.end,r,t,e);if(r.start)return pt(n,r.start,r,t,e)}return at(n,r,t,e)}function _t(t,n,r){var e=At(t,n,r,!0);return e.a=function(t){var n=arguments.length>1&&void 0!==arguments[1]&&arguments[1];return n?t+Math.PI:t}(e.a)/p,e}function St(t){return!t.type||"corner"===t.type}function Ot(t){return null!=t.start&&!St(t)}var Mt=new et;var jt={f:U,i:b},Ft={f:U,i:function(t,n,r){var e=b(t,n,r);return e<=0?0:e>=1?1:e}};function Pt(t,n,r,e,i,o,u,a){return n=function(t,n,r){for(var e,i,o,u=t.length-1,a={},l=0;l<=u;l++)(e=t[l]).e&&(e.e=n(e.e)),e.v&&"g"===(i=e.v).t&&i.r&&(o=r.getElementById(i.r))&&(a[i.r]=o.querySelectorAll("stop"));return a}(t,e,a),function(e){var i,o=r(e,t,Bt);return o?"c"===o.t?$(o.v):"g"===o.t?(n[o.r]&&function(t,n){for(var r=0,e=t.length;r<e;r++)t[r].setAttribute("stop-color",$(n[r]))}(n[o.r],o.v),(i=o.r)?"url(#"+i+")":"none"):"none":"none"}}function Bt(t,n,r){if(0===t)return n;if(1===t)return r;if(n&&r){var e=n.t;if(e===r.t)switch(n.t){case"c":return{t:e,v:A(t,n.v,r.v)};case"g":if(n.r===r.r)return{t:e,v:_(t,n.v,r.v),r:n.r}}}return m(t,n,r)}var It={fill:Pt,"fill-opacity":Ft,stroke:Pt,"stroke-opacity":Ft,"stroke-width":jt,"stroke-dashoffset":{f:U,i:b},"stroke-dasharray":{f:function(t){var n=arguments.length>1&&void 0!==arguments[1]?arguments[1]:" ";return t&&t.length>0&&(t=t.map((function(t){return Math.floor(1e4*t)/1e4}))),V(t,n)},i:function(t,n,r){var e,i,o,u=n.length,a=r.length;if(u!==a)if(0===u)n=S(u=a,0);else if(0===a)a=u,r=S(u,0);else{var l=(o=(e=u)*(i=a)/function(t,n){for(var r;n;)r=n,n=t%n,t=r;return t||1}(e,i))<0?-o:o;n=O(n,Math.floor(l/u)),r=O(r,Math.floor(l/a)),u=a=l}for(var f=[],s=0;s<u;s++)f.push(g(w(t,n[s],r[s]),6));return f}},opacity:Ft,transform:function(n,r,e,i){if(!(n=function(n,r){if(!n||"object"!==t(n))return null;var e=!1;for(var i in n)n.hasOwnProperty(i)&&(n[i]&&n[i].length?(n[i].forEach((function(t){t.e&&(t.e=r(t.e))})),e=!0):delete n[i]);return e?n:null}(n,i)))return null;var o=function(t,i,o){var u=arguments.length>3&&void 0!==arguments[3]?arguments[3]:null;return n[t]?e(i,n[t],o):r&&r[t]?r[t]:u};return r&&r.a&&n.o?function(t){var r=e(t,n.o,_t);return Mt.recomposeSelf(r,o("r",t,b,0)+r.a,o("k",t,x),o("s",t,x),o("t",t,x)).toString()}:function(t){return Mt.recomposeSelf(o("o",t,At,null),o("r",t,b,0),o("k",t,x),o("s",t,x),o("t",t,x)).toString()}},r:jt,"#size":H,"#radius":G,_:function(t,n){if(Array.isArray(t))for(var r=0;r<t.length;r++)this[t[r]]=n;else this[t]=n}};return function(t){!function(t,n){if("function"!=typeof n&&null!==n)throw new TypeError("Super expression must either be null or a function");t.prototype=Object.create(n&&n.prototype,{constructor:{value:t,writable:!0,configurable:!0}}),n&&o(t,n)}(u,t);var r=a(u);function u(){return n(this,u),r.apply(this,arguments)}return e(u,null,[{key:"build",value:function(t){var n=l(i(u),"build",this).call(this,t,It);n.el,n.options;var r=n.player;return function(t){t.play()}(r),r}}]),u}(D)}));
__SVGATOR_PLAYER__.build({"root":"ep9ehuev3fg1","animations":[{"duration":3000,"direction":1,"iterations":0,"fill":1,"alternate":false,"elements":{"ep9ehuev3fg18":{"transform":{"data":{"t":{"x":0.000126220703123181,"y":-0.000022506713868608585}},"keys":{"o":[{"t":0,"v":{"x":159.95187377929688,"y":47.21252250671387,"type":"corner"}},{"t":1000,"v":{"x":152.9472537792969,"y":50.21740250671387,"type":"corner"}},{"t":2000,"v":{"x":162.9472537792969,"y":43.21740250671387,"type":"corner"}},{"t":3000,"v":{"x":159.9472537792969,"y":47.21740250671387,"type":"corner"}}]}}},"ep9ehuev3fg46":{"transform":{"data":{"t":{"x":0.000011651611330876221,"y":0.0004293212890615905}},"keys":{"o":[{"t":0,"v":{"x":81.92736834838867,"y":165.72557067871094,"type":"corner"}},{"t":1000,"v":{"x":86.92736834838867,"y":157.72695067871095,"type":"corner"}},{"t":2000,"v":{"x":77.92736834838867,"y":172.72695067871095,"type":"corner"}},{"t":3000,"v":{"x":81.92736834838867,"y":165.72695067871095,"type":"corner"}}]}}},"ep9ehuev3fg67":{"transform":{"data":{"t":{"x":-0.00022915649414301242,"y":-0.0002834472656161324}},"keys":{"o":[{"t":0,"v":{"x":120.93722915649414,"y":244.73428344726562,"type":"corner"}},{"t":1000,"v":{"x":124.93760915649415,"y":249.73766344726562,"type":"corner"}},{"t":2000,"v":{"x":122.93760915649415,"y":242.73766344726562,"type":"corner"}},{"t":3000,"v":{"x":120.93760915649415,"y":244.73766344726562,"type":"corner"}}]}}},"ep9ehuev3fg106":{"transform":{"data":{"t":{"x":-434.6645050048828,"y":-212.24649810791016}},"keys":{"o":[{"t":0,"v":{"x":434.6645050048828,"y":212.24649810791016,"type":"corner"}},{"t":1000,"v":{"x":441.66150500488277,"y":217.24449810791015,"type":"corner"}},{"t":2000,"v":{"x":431.66150500488277,"y":208.24449810791015,"type":"corner"}},{"t":3000,"v":{"x":434.66150500488277,"y":212.24449810791015,"type":"corner"}}]}}}}}],"options":{"start":"load","hover":"freeze","click":"freeze","scroll":25,"font":"embed","exportedIds":"unique","title":"background"},"animationSettings":{"duration":3000,"direction":1,"iterations":0,"fill":1,"alternate":false}})]]></script></svg>