<svg id="ezafbk0jrsr1" xmlns="http://www.w3.org/2000/svg" xmlns:xlink="http://www.w3.org/1999/xlink" viewBox="0 0 576.499280 493.500000" shape-rendering="geometricPrecision" text-rendering="geometricPrecision"><path id="ezafbk0jrsr2" d="M626.349090,371.817490L638.151930,420.573550L869.033130,364.682000L857.230290,315.925940C856.940504,314.714326,856.050961,313.735209,854.872620,313.330860C854.444591,313.180336,853.991932,313.112220,853.538560,313.130110L720.079370,244.028190C718.463502,243.203114,716.487441,243.678108,715.423090,245.147440L651.103220,334.841190L626.855280,368.664000C626.766250,368.783862,626.733765,368.936524,626.766280,369.082250C626.272789,369.903607,626.122895,370.886364,626.349090,371.817490Z" transform="matrix(1 0 0 1 -458.14616100000001 -128.34516700000003)" fill="rgb(255,255,255)" stroke="none" stroke-width="1"/><path id="ezafbk0jrsr3" d="M626.766300,369.082260C626.789358,369.210347,626.862451,369.323988,626.969440,369.398090C627.096034,369.484820,627.252697,369.515739,627.402750,369.483610C627.523498,369.451480,627.629222,369.378164,627.701640,369.276340L627.784900,369.160970L629.047440,367.395430L651.976330,335.431160L716.277150,245.757960C717.035381,244.707849,718.447194,244.369450,719.599090,244.961720L852.024460,313.528380L853.212840,314.145180C853.260864,314.165350,853.310064,314.182599,853.360170,314.196830C853.449765,314.180527,853.540579,314.171830,853.631640,314.170830C853.755939,314.129220,853.859627,314.041663,853.921470,313.926090C853.986560,313.803116,854.000069,313.659305,853.959019,313.526361C853.917969,313.393417,853.825731,313.282258,853.702640,313.217390L853.538560,313.130130L720.079370,244.028190C718.463502,243.203114,716.487441,243.678108,715.423090,245.147440L651.103220,334.841190L626.855280,368.664000C626.766254,368.783868,626.733776,368.936534,626.766300,369.082260Z" transform="matrix(1 0 0 1 -458.14616100000001 -128.34516700000003)" fill="rgb(63,61,86)" stroke="none" stroke-width="1"/><path id="ezafbk0jrsr4" d="M696.107240,374.053860L701.246580,374.623980L739.389100,378.849330L764.674930,381.648690L766.168510,381.814690L797.720680,357.169920L798.929510,356.225920L806.381860,350.405730L832.895360,329.699440L833.054550,328.245030L842.484990,243.130900C842.752624,240.690683,840.995311,238.493990,838.555870,238.219380L712.700000,224.277630C710.260085,224.011167,708.064091,225.767937,707.788430,228.206830L701.138000,288.244390L697.449000,321.530200L694.149000,351.308670L692.619240,365.137860L692.172870,369.143590C691.907818,371.584679,693.667087,373.780326,696.107240,374.053860Z" transform="matrix(1 0 0 1 -458.14616100000001 -128.34516700000003)" fill="rgb(230,230,230)" stroke="none" stroke-width="1"/><path id="ezafbk0jrsr5" d="M730.692340,299.447760L785.209020,305.485820L804.542560,307.626510C806.864765,307.883704,809.147782,306.882479,810.531621,304.999987C811.915460,303.117496,812.189882,300.639733,811.251516,298.500047C810.313150,296.360362,808.304555,294.883824,805.982350,294.626630L781.935520,291.963410L732.136110,286.441530C728.545649,286.044851,725.313021,288.632879,724.914481,292.223134C724.515941,295.813389,727.102292,299.047359,730.692340,299.447760Z" transform="matrix(1 0 0 1 -458.14616100000001 -128.34516700000003)" fill="rgb(255,255,255)" stroke="none" stroke-width="1"/><path id="ezafbk0jrsr6" d="M727.588330,323.563770C727.729010,323.588920,727.869690,323.614080,728.012880,323.627880L791.298030,330.638780L801.864330,331.811690C805.455562,332.208935,808.688860,329.619697,809.086105,326.028465C809.483350,322.437233,806.894112,319.203935,803.302880,318.806690L788.024540,317.116360L737.894090,311.561560L729.457880,310.626710C725.950687,310.235452,722.765711,312.697591,722.260979,316.190259C721.756248,319.682926,724.113857,322.946035,727.588330,323.563710Z" transform="matrix(1 0 0 1 -458.14616100000001 -128.34516700000003)" fill="rgb(255,255,255)" stroke="none" stroke-width="1"/><path id="ezafbk0jrsr7" d="M720.425870,344.947590C721.476959,346.692812,723.281456,347.848382,725.306340,348.072960L751.245040,350.945770L797.442120,356.063770L797.452300,356.061300L798.929510,356.225920L806.381860,350.405730C806.427909,349.963611,806.428278,349.517924,806.382960,349.075730C806.059206,346.017217,803.652487,343.595110,800.596100,343.251870L794.178810,342.538870L768.721810,339.721750L750.404920,337.690250L726.744700,335.068020C724.271177,334.794250,721.856631,335.948049,720.515748,338.044545C719.174865,340.141041,719.140044,342.816872,720.425920,344.947550Z" transform="matrix(1 0 0 1 -458.14616100000001 -128.34516700000003)" fill="rgb(255,255,255)" stroke="none" stroke-width="1"/><path id="ezafbk0jrsr8" d="M756.858800,269.969540L770.423200,271.471860L776.414440,272.137230L785.464570,273.138820C789.055802,273.536065,792.289100,270.946827,792.686345,267.355595C793.083590,263.764363,790.494352,260.531065,786.903120,260.133820L758.303800,256.968370C755.981372,256.710246,753.697652,257.710730,752.312896,259.592949C750.928139,261.475169,750.652724,263.953170,751.590396,266.093514C752.528067,268.233858,754.536372,269.711376,756.858800,269.969500Z" transform="matrix(1 0 0 1 -458.14616100000001 -128.34516700000003)" fill="rgb(255,255,255)" stroke="none" stroke-width="1"/><path id="ezafbk0jrsr9" d="M645.943700,306.181800L662.481060,374.495600L690.082290,379.743830L715.614290,384.604720L743.007850,389.817100L751.760850,391.482800C752.797431,391.678707,753.868206,391.419495,754.700420,390.771190L761.722480,385.286680L766.168530,381.814680L797.720700,357.169910L777.658700,274.296290C777.460531,273.471792,777.028475,272.722063,776.414460,272.137210C775.320101,271.085542,773.765084,270.664383,772.289570,271.020030L649.220000,300.812670C646.833617,301.391941,645.367435,303.794689,645.943700,306.181800Z" transform="matrix(1 0 0 1 -458.14482555000001 -128.34516700000000)" fill="rgb(108,99,255)" stroke="none" stroke-width="1"/><path id="ezafbk0jrsr10" d="M683.864070,360.527880C684.716687,364.036710,688.249549,366.192464,691.759840,365.345880L763.974240,347.864260C767.481807,347.009908,769.636707,343.478441,768.792240,339.968480C768.773792,339.884880,768.750248,339.802486,768.721740,339.721760C767.763459,336.344352,764.309116,334.326423,760.896470,335.150460L688.682070,352.632070C685.173220,353.484686,683.017461,357.017576,683.864070,360.527880Z" transform="matrix(1 0 0 1 -458.14658092000002 -128.34190284000005)" fill="rgb(255,255,255)" stroke="none" stroke-width="1"/><path id="ezafbk0jrsr11" d="M690.082290,379.743830L715.614290,384.604720L769.698850,371.512000C773.209669,370.662103,775.366772,367.127044,774.516875,363.616225C773.666978,360.105406,770.131919,357.948303,766.621100,358.798200L694.406710,376.279820C692.897559,376.642246,691.568121,377.533201,690.659220,378.791290C690.440352,379.091939,690.247352,379.410592,690.082290,379.743830Z" transform="matrix(1 0 0 1 -458.14845100000002 -128.34847877000001)" fill="rgb(255,255,255)" stroke="none" stroke-width="1"/><path id="ezafbk0jrsr12" d="M743.007850,389.817100L751.760850,391.482800C752.797431,391.678707,753.868206,391.419495,754.700420,390.771190L761.722480,385.286680Z" transform="matrix(1 0 0 1 -458.14616100000001 -128.34516700000003)" fill="rgb(255,255,255)" stroke="none" stroke-width="1"/><path id="ezafbk0jrsr13" d="M698.414820,323.896640C699.267427,327.405477,702.800298,329.561235,706.310590,328.714640L734.280960,321.943590C737.788526,321.089243,739.943426,317.557778,739.098960,314.047820C738.881146,313.141941,738.470135,312.293833,737.894070,311.561570C736.313663,309.539970,733.697741,308.628318,731.203190,309.229790L703.232820,316.000840C699.722333,316.851186,697.565460,320.385884,698.414820,323.896610Z" transform="matrix(1 0 0 1 -458.14626354000001 -128.34243873000005)" fill="rgb(255,255,255)" stroke="none" stroke-width="1"/><path id="ezafbk0jrsr14" d="M715.612220,384.604340L743.010220,389.817920L751.760640,391.484350C752.796609,391.677850,753.865873,391.418999,754.698640,390.773110L761.725780,385.287260L759.259840,385.884210L754.054250,389.945210C753.459312,390.406584,752.695462,390.591498,751.955380,390.453310L745.476120,389.220930L718.078120,384.007360ZM797.449890,356.065340L797.716610,357.167150L798.931820,356.222350ZM715.612220,384.604340L743.010220,389.817920L751.760640,391.484350C752.796609,391.677850,753.865873,391.418999,754.698640,390.773110L761.725780,385.287260L759.259840,385.884210L754.054250,389.945210C753.459312,390.406584,752.695462,390.591498,751.955380,390.453310L745.476120,389.220930L718.078120,384.007360ZM715.612220,384.604340L743.010220,389.817920L751.760640,391.484350C752.796609,391.677850,753.865873,391.418999,754.698640,390.773110L761.725780,385.287260L759.259840,385.884210L754.054250,389.945210C753.459312,390.406584,752.695462,390.591498,751.955380,390.453310L745.476120,389.220930L718.078120,384.007360ZM626.349090,371.817490L657.265090,499.527680C657.742772,501.492692,659.721227,502.699949,661.687150,502.226030L885.447940,448.058150C887.413040,447.580588,888.620356,445.602036,888.146290,443.636090L857.230290,315.925910C856.940504,314.714296,856.050961,313.735179,854.872620,313.330830C854.444591,313.180306,853.991932,313.112190,853.538560,313.130080C853.010047,313.145351,852.492074,313.281609,852.024460,313.528380C851.808515,313.630846,851.604814,313.757338,851.417220,313.905460L833.053090,328.245220L806.382850,349.078670L797.448070,356.057780L797.449890,356.065290L797.442200,356.067150L764.676500,381.645150L759.259860,385.884200L754.054270,389.945200C753.459332,390.406574,752.695482,390.591488,751.955400,390.453300L745.476140,389.220920L718.078140,384.007350L690.656000,378.791720L630.594850,367.362000C630.082752,367.260503,629.554679,367.271908,629.047440,367.395420C628.364437,367.562298,627.743746,367.921864,627.259210,368.431340C627.073712,368.631414,626.908594,368.849459,626.766300,369.082250C626.272802,369.903604,626.122901,370.886361,626.349090,371.817490ZM715.612220,384.604340L743.010220,389.817920L751.760640,391.484350C752.796609,391.677850,753.865873,391.418999,754.698640,390.773110L761.725780,385.287260L759.259840,385.884210L754.054250,389.945210C753.459312,390.406584,752.695462,390.591498,751.955380,390.453310L745.476120,389.220930L718.078120,384.007360ZM715.612220,384.604340L743.010220,389.817920L751.760640,391.484350C752.796609,391.677850,753.865873,391.418999,754.698640,390.773110L761.725780,385.287260L759.259840,385.884210L754.054250,389.945210C753.459312,390.406584,752.695462,390.591498,751.955380,390.453310L745.476120,389.220930L718.078120,384.007360ZM715.612220,384.604340L743.010220,389.817920L751.760640,391.484350C752.796609,391.677850,753.865873,391.418999,754.698640,390.773110L761.725780,385.287260L759.259840,385.884210L754.054250,389.945210C753.459312,390.406584,752.695462,390.591498,751.955380,390.453310L745.476120,389.220930L718.078120,384.007360Z" transform="matrix(1 0 0 1 -458.14616100000001 -128.34516700000003)" fill="rgb(255,255,255)" stroke="none" stroke-width="1"/><path id="ezafbk0jrsr15" d="M715.612220,384.604340L743.010220,389.817920L751.760640,391.484350C752.796609,391.677850,753.865873,391.418999,754.698640,390.773110L761.725780,385.287260L759.259840,385.884210L754.054250,389.945210C753.459312,390.406584,752.695462,390.591498,751.955380,390.453310L745.476120,389.220930L718.078120,384.007360ZM797.449890,356.065340L797.716610,357.167150L798.931820,356.222350ZM715.612220,384.604340L743.010220,389.817920L751.760640,391.484350C752.796609,391.677850,753.865873,391.418999,754.698640,390.773110L761.725780,385.287260L759.259840,385.884210L754.054250,389.945210C753.459312,390.406584,752.695462,390.591498,751.955380,390.453310L745.476120,389.220930L718.078120,384.007360ZM715.612220,384.604340L743.010220,389.817920L751.760640,391.484350C752.796609,391.677850,753.865873,391.418999,754.698640,390.773110L761.725780,385.287260L759.259840,385.884210L754.054250,389.945210C753.459312,390.406584,752.695462,390.591498,751.955380,390.453310L745.476120,389.220930L718.078120,384.007360ZM627.784900,369.161000L627.920790,369.263000C627.943540,369.225730,627.983120,369.192370,628.013180,369.153320C628.628627,368.512790,629.524713,368.224327,630.398250,368.385530L690.083920,379.739530L715.612220,384.604320L743.010220,389.817900L751.760640,391.484330C752.796609,391.677830,753.865873,391.418979,754.698640,390.773090L761.725780,385.287240L759.259840,385.884190L754.054250,389.945190C753.459312,390.406564,752.695462,390.591478,751.955380,390.453290L745.476120,389.220910L718.078120,384.007340L690.656000,378.791720L630.594850,367.362000C630.082752,367.260503,629.554679,367.271908,629.047440,367.395420ZM626.349090,371.817520L657.265090,499.527710C657.742772,501.492722,659.721227,502.699979,661.687150,502.226060L885.447940,448.058180C887.413040,447.580618,888.620356,445.602066,888.146290,443.636120L857.230290,315.925940C856.940504,314.714326,856.050961,313.735209,854.872620,313.330860C854.444591,313.180336,853.991932,313.112220,853.538560,313.130110C853.010047,313.145381,852.492074,313.281639,852.024460,313.528410C851.808515,313.630876,851.604814,313.757368,851.417220,313.905490L833.053090,328.245250L806.382850,349.078700L797.448070,356.057810L797.449890,356.065320L797.442200,356.067180L764.676500,381.645180L759.259860,385.884230L754.054270,389.945230C753.459332,390.406604,752.695482,390.591518,751.955400,390.453330L745.476140,389.220950L718.078140,384.007380L690.656000,378.791720L630.594850,367.362000C630.082752,367.260503,629.554679,367.271908,629.047440,367.395420C628.364437,367.562298,627.743746,367.921864,627.259210,368.431340C627.073712,368.631414,626.908594,368.849459,626.766300,369.082250C626.272802,369.903604,626.122901,370.886361,626.349090,371.817490ZM627.368690,371.570700C627.183861,370.808290,627.353486,370.003188,627.830210,369.380160C627.851457,369.334949,627.882380,369.294959,627.920790,369.263020C627.943540,369.225750,627.983120,369.192390,628.013180,369.153340C628.628627,368.512810,629.524713,368.224347,630.398250,368.385550L690.083920,379.739550L715.612220,384.604340L743.010220,389.817920L751.760640,391.484350C752.796609,391.677850,753.865873,391.418999,754.698640,390.773110L761.725780,385.287260L766.169730,381.815310L797.716590,357.167100L798.931800,356.222300L806.378420,350.404820L832.896620,329.695440L852.067830,314.723870C852.359292,314.496610,852.695798,314.334006,853.054970,314.246870C853.155250,314.222321,853.257282,314.205584,853.360150,314.196810C853.449745,314.180507,853.540559,314.171810,853.631620,314.170810C853.938039,314.167907,854.242685,314.217598,854.532300,314.317720C855.371867,314.610083,856.006404,315.307519,856.218350,316.170900L887.134350,443.881090C887.298631,444.556981,887.187351,445.270459,886.825046,445.864219C886.462740,446.457979,885.879160,446.883264,885.202970,447.046310L661.442200,501.214160C660.036423,501.552138,658.622811,500.686595,658.284700,499.280850ZM715.612220,384.604370L743.010220,389.817950L751.760640,391.484380C752.796609,391.677880,753.865873,391.419029,754.698640,390.773140L761.725780,385.287290L759.259840,385.884240L754.054250,389.945240C753.459312,390.406614,752.695462,390.591528,751.955380,390.453340L745.476120,389.220960L718.078120,384.007390ZM715.612220,384.604370L743.010220,389.817950L751.760640,391.484380C752.796609,391.677880,753.865873,391.419029,754.698640,390.773140L761.725780,385.287290L759.259840,385.884240L754.054250,389.945240C753.459312,390.406614,752.695462,390.591528,751.955380,390.453340L745.476120,389.220960L718.078120,384.007390ZM715.612220,384.604370L743.010220,389.817950L751.760640,391.484380C752.796609,391.677880,753.865873,391.419029,754.698640,390.773140L761.725780,385.287290L759.259840,385.884240L754.054250,389.945240C753.459312,390.406614,752.695462,390.591528,751.955380,390.453340L745.476120,389.220960L718.078120,384.007390Z" transform="matrix(1 0 0 1 -458.14616100000001 -128.34516700000003)" fill="rgb(63,61,86)" stroke="none" stroke-width="1"/><path id="ezafbk0jrsr16" d="M827.129100,422.967420C826.079535,418.610180,828.755023,414.225592,833.109870,413.166140L861.351430,406.329440C865.702408,405.292303,870.072680,407.969587,871.125075,412.316900C872.177470,416.664212,869.515534,421.043850,865.171940,422.111490L836.930380,428.948190C832.573140,429.997755,828.188552,427.322267,827.129100,422.967420Z" transform="matrix(1 0 0 1 -458.14616100000001 -128.34516700000003)" fill="rgb(108,99,255)" stroke="none" stroke-width="1"/><script><![CDATA[!function(t,n){"object"==typeof exports&&"undefined"!=typeof module?module.exports=n():"function"==typeof define&&define.amd?define(n):(t=t||self).__SVGATOR_PLAYER__=n()}(this,(function(){"use strict";function t(n){return(t="function"==typeof Symbol&&"symbol"==typeof Symbol.iterator?function(t){return typeof t}:function(t){return t&&"function"==typeof Symbol&&t.constructor===Symbol&&t!==Symbol.prototype?"symbol":typeof t})(n)}function n(t,n){if(!(t instanceof n))throw new TypeError("Cannot call a class as a function")}function r(t,n){for(var r=0;r<n.length;r++){var e=n[r];e.enumerable=e.enumerable||!1,e.configurable=!0,"value"in e&&(e.writable=!0),Object.defineProperty(t,e.key,e)}}function e(t,n,e){return n&&r(t.prototype,n),e&&r(t,e),t}function i(t){return(i=Object.setPrototypeOf?Object.getPrototypeOf:function(t){return t.__proto__||Object.getPrototypeOf(t)})(t)}function o(t,n){return(o=Object.setPrototypeOf||function(t,n){return t.__proto__=n,t})(t,n)}function u(t,n){return!n||"object"!=typeof n&&"function"!=typeof n?function(t){if(void 0===t)throw new ReferenceError("this hasn't been initialised - super() hasn't been called");return t}(t):n}function a(t){var n=function(){if("undefined"==typeof Reflect||!Reflect.construct)return!1;if(Reflect.construct.sham)return!1;if("function"==typeof Proxy)return!0;try{return Date.prototype.toString.call(Reflect.construct(Date,[],(function(){}))),!0}catch(t){return!1}}();return function(){var r,e=i(t);if(n){var o=i(this).constructor;r=Reflect.construct(e,arguments,o)}else r=e.apply(this,arguments);return u(this,r)}}function l(t,n,r){return(l="undefined"!=typeof Reflect&&Reflect.get?Reflect.get:function(t,n,r){var e=function(t,n){for(;!Object.prototype.hasOwnProperty.call(t,n)&&null!==(t=i(t)););return t}(t,n);if(e){var o=Object.getOwnPropertyDescriptor(e,n);return o.get?o.get.call(r):o.value}})(t,n,r||t)}var f=Math.abs;function s(t){return t}function c(t,n,r){var e=1-r;return 3*r*e*(t*e+n*r)+r*r*r}function h(){var t=arguments.length>0&&void 0!==arguments[0]?arguments[0]:0,n=arguments.length>1&&void 0!==arguments[1]?arguments[1]:0,r=arguments.length>2&&void 0!==arguments[2]?arguments[2]:1,e=arguments.length>3&&void 0!==arguments[3]?arguments[3]:1;return t<0||t>1||r<0||r>1?null:f(t-n)<=1e-5&&f(r-e)<=1e-5?s:function(i){if(i<=0)return t>0?i*n/t:0===n&&r>0?i*e/r:0;if(i>=1)return r<1?1+(i-1)*(e-1)/(r-1):1===r&&t<1?1+(i-1)*(n-1)/(t-1):1;for(var o,u=0,a=1;u<a;){var l=c(t,r,o=(u+a)/2);if(f(i-l)<1e-5)break;l<i?u=o:a=o}return c(n,e,o)}}function v(){return 1}function y(t){return 1===t?1:0}function d(){var t=arguments.length>0&&void 0!==arguments[0]?arguments[0]:1,n=arguments.length>1&&void 0!==arguments[1]?arguments[1]:0;if(1===t){if(0===n)return y;if(1===n)return v}var r=1/t;return function(t){return t>=1?1:(t+=n*r)-t%r}}function g(t){var n=arguments.length>1&&void 0!==arguments[1]?arguments[1]:2;if(Number.isInteger(t))return t;var r=Math.pow(10,n);return Math.round(t*r)/r}var p=Math.PI/180;function m(t,n,r){return t>=.5?r:n}function b(t,n,r){return 0===t||n===r?n:t*(r-n)+n}function w(t,n,r){var e=b(t,n,r);return e<=0?0:e}function x(t,n,r){return 0===t?n:1===t?r:{x:b(t,n.x,r.x),y:b(t,n.y,r.y)}}function k(t,n,r){var e=function(t,n,r){return Math.round(b(t,n,r))}(t,n,r);return e<=0?0:e>=255?255:e}function A(t,n,r){return 0===t?n:1===t?r:{r:k(t,n.r,r.r),g:k(t,n.g,r.g),b:k(t,n.b,r.b),a:b(t,null==n.a?1:n.a,null==r.a?1:r.a)}}function _(t,n,r){if(0===t)return n;if(1===t)return r;var e=n.length;if(e!==r.length)return m(t,n,r);for(var i=[],o=0;o<e;o++)i.push(A(t,n[o],r[o]));return i}function S(t,n){for(var r=[],e=0;e<t;e++)r.push(n);return r}function O(t,n){if(--n<=0)return t;var r=(t=Object.assign([],t)).length;do{for(var e=0;e<r;e++)t.push(t[e])}while(--n>0);return t}var M,j=function(){function t(r){n(this,t),this.list=r,this.length=r.length}return e(t,[{key:"setAttribute",value:function(t,n){for(var r=this.list,e=0;e<this.length;e++)r[e].setAttribute(t,n)}},{key:"removeAttribute",value:function(t){for(var n=this.list,r=0;r<this.length;r++)n[r].removeAttribute(t)}},{key:"style",value:function(t,n){for(var r=this.list,e=0;e<this.length;e++)r[e].style[t]=n}}]),t}(),F=/-./g,P=function(t,n){return n.toUpperCase()};function I(t){return"function"==typeof t?t:m}function R(t){return t?"function"==typeof t?t:Array.isArray(t)?function(t){var n=arguments.length>1&&void 0!==arguments[1]?arguments[1]:s;if(!Array.isArray(t))return n;switch(t.length){case 1:return d(t[0])||n;case 2:return d(t[0],t[1])||n;case 4:return h(t[0],t[1],t[2],t[3])||n}return n}(t,null):function(t,n){var r=arguments.length>2&&void 0!==arguments[2]?arguments[2]:s;switch(t){case"linear":return s;case"steps":return d(n.steps||1,n.jump||0)||r;case"bezier":case"cubic-bezier":return h(n.x1||0,n.y1||0,n.x2||0,n.y2||0)||r}return r}(t.type,t.value,null):null}function q(t,n,r){var e=arguments.length>3&&void 0!==arguments[3]&&arguments[3],i=n.length-1;if(t<=n[0].t)return e?[0,0,n[0].v]:n[0].v;if(t>=n[i].t)return e?[i,1,n[i].v]:n[i].v;var o,u=n[0],a=null;for(o=1;o<=i;o++){if(!(t>n[o].t)){a=n[o];break}u=n[o]}return null==a?e?[i,1,n[i].v]:n[i].v:u.t===a.t?e?[o,1,a.v]:a.v:(t=(t-u.t)/(a.t-u.t),u.e&&(t=u.e(t)),e?[o,t,r(t,u.v,a.v)]:r(t,u.v,a.v))}function B(t,n){var r=arguments.length>2&&void 0!==arguments[2]?arguments[2]:null;return t&&t.length?"function"!=typeof n?null:("function"!=typeof r&&(r=null),function(e){var i=q(e,t,n);return null!=i&&r&&(i=r(i)),i}):null}function E(t,n){return t.t-n.t}function N(n,r,e,i,o){var u,a="@"===e[0],l="#"===e[0],f=M[e],s=m;switch(a?(u=e.substr(1),e=u.replace(F,P)):l&&(e=e.substr(1)),t(f)){case"function":if(s=f(i,o,q,R,e,a,r,n),l)return s;break;case"string":s=B(i,I(f));break;case"object":if((s=B(i,I(f.i),f.f))&&"function"==typeof f.u)return f.u(r,s,e,a,n)}return s?function(t,n,r){var e=arguments.length>3&&void 0!==arguments[3]&&arguments[3];if(e)return t instanceof j?function(e){return t.style(n,r(e))}:function(e){return t.style[n]=r(e)};if(Array.isArray(n)){var i=n.length;return function(e){var o=r(e);if(null==o)for(var u=0;u<i;u++)t[u].removeAttribute(n);else for(var a=0;a<i;a++)t[a].setAttribute(n,o)}}return function(e){var i=r(e);null==i?t.removeAttribute(n):t.setAttribute(n,i)}}(r,e,s,a):null}function T(n,r,e,i){if(!i||"object"!==t(i))return null;var o=null,u=null;return Array.isArray(i)?u=function(t){if(!t||!t.length)return null;for(var n=0;n<t.length;n++)t[n].e&&(t[n].e=R(t[n].e));return t.sort(E)}(i):(u=i.keys,o=i.data||null),u?N(n,r,e,u,o):null}function C(t,n,r){if(!r)return null;var e=[];for(var i in r)if(r.hasOwnProperty(i)){var o=T(t,n,i,r[i]);o&&e.push(o)}return e.length?e:null}function z(t,n){if(!n.duration||n.duration<0)return null;var r=function(t,n){if(!n)return null;var r=[];if(Array.isArray(n))for(var e=n.length,i=0;i<e;i++){var o=n[i];if(2===o.length){var u=null;if("string"==typeof o[0])u=t.getElementById(o[0]);else if(Array.isArray(o[0])){u=[];for(var a=0;a<o[0].length;a++)if("string"==typeof o[0][a]){var l=t.getElementById(o[0][a]);l&&u.push(l)}u=u.length?1===u.length?u[0]:new j(u):null}if(u){var f=C(t,u,o[1]);f&&(r=r.concat(f))}}}else for(var s in n)if(n.hasOwnProperty(s)){var c=t.getElementById(s);if(c){var h=C(t,c,n[s]);h&&(r=r.concat(h))}}return r.length?r:null}(t,n.elements);return r?function(t,n){var r=arguments.length>2&&void 0!==arguments[2]?arguments[2]:1/0,e=arguments.length>3&&void 0!==arguments[3]?arguments[3]:1,i=arguments.length>4&&void 0!==arguments[4]&&arguments[4],o=arguments.length>5&&void 0!==arguments[5]?arguments[5]:1,u=t.length,a=e>0?n:0;i&&r%2==0&&(a=n-a);var l=null;return function(f,s){var c=f%n,h=1+(f-c)/n;s*=e,i&&h%2==0&&(s=-s);var v=!1;if(h>r)c=a,v=!0,-1===o&&(c=e>0?0:n);else if(s<0&&(c=n-c),c===l)return!1;l=c;for(var y=0;y<u;y++)t[y](c);return v}}(r,n.duration,n.iterations||1/0,n.direction||1,!!n.alternate,n.fill||1):null}function L(t,n){if(M=n,!t||!t.root||!Array.isArray(t.animations))return null;for(var r=document.getElementsByTagName("svg"),e=!1,i=0;i<r.length;i++)if(r[i].id===t.root&&!r[i].svgatorAnimation){(e=r[i]).svgatorAnimation=!0;break}if(!e)return null;var o=t.animations.map((function(t){return z(e,t)})).filter((function(t){return!!t}));return o.length?{element:e,animations:o,animationSettings:t.animationSettings,options:t.options||void 0}:null}var D=function(){function t(r,e){var i=arguments.length>2&&void 0!==arguments[2]?arguments[2]:{};n(this,t),this._id=0,this._running=!1,this._rollingBack=!1,this._animations=r,this.duration=e.duration,this.alternate=e.alternate,this.fill=e.fill,this.iterations=e.iterations,this.direction=i.direction||1,this.speed=i.speed||1,this.fps=i.fps||100,this.offset=i.offset||0,this.rollbackStartOffset=0}return e(t,[{key:"_rollback",value:function(){var t=this,n=1/0,r=null;this.rollbackStartOffset=this.offset,this._rollingBack||(this._rollingBack=!0,this._running=!0);this._id=window.requestAnimationFrame((function e(i){if(t._rollingBack){null==r&&(r=i);var o=i-r,u=t.rollbackStartOffset-o,a=Math.round(u*t.speed);if(a>t.duration&&n!=1/0){var l=!!t.alternate&&a/t.duration%2>1,f=a%t.duration;a=(f+=l?t.duration:0)||t.duration}var s=t.fps?1e3/t.fps:0,c=Math.max(0,a);if(c<n-s){t.offset=c,n=c;for(var h=t._animations,v=h.length,y=0;y<v;y++)h[y](c,t.direction)}var d=!1;if(t.iterations>0&&-1===t.fill){var g=t.iterations*t.duration,p=g==a;a=p?0:a,t.offset=p?0:t.offset,d=a>g}a>0&&t.offset>=a&&!d?t._id=window.requestAnimationFrame(e):t.stop()}}))}},{key:"_start",value:function(){var t=this,n=arguments.length>0&&void 0!==arguments[0]?arguments[0]:0,r=-1/0,e=null,i={},o=function o(u){t._running=!0,null==e&&(e=u);var a=Math.round((u-e+n)*t.speed),l=t.fps?1e3/t.fps:0;if(a>r+l&&!t._rollingBack){t.offset=a,r=a;for(var f=t._animations,s=f.length,c=0,h=0;h<s;h++)i[h]?c++:(i[h]=f[h](a,t.direction),i[h]&&c++);if(c===s)return void t._stop()}t._id=window.requestAnimationFrame(o)};this._id=window.requestAnimationFrame(o)}},{key:"_stop",value:function(){this._id&&window.cancelAnimationFrame(this._id),this._running=!1,this._rollingBack=!1}},{key:"play",value:function(){!this._rollingBack&&this._running||(this._rollingBack=!1,this.rollbackStartOffset>this.duration&&(this.offset=this.rollbackStartOffset-(this.rollbackStartOffset-this.offset)%this.duration,this.rollbackStartOffset=0),this._start(this.offset))}},{key:"stop",value:function(){this._stop(),this.offset=0,this.rollbackStartOffset=0;var t=this.direction,n=this._animations;window.requestAnimationFrame((function(){for(var r=0;r<n.length;r++)n[r](0,t)}))}},{key:"reachedToEnd",value:function(){return this.iterations>0&&this.offset>=this.iterations*this.duration}},{key:"restart",value:function(){this._stop(),this.offset=0,this._start()}},{key:"pause",value:function(){this._stop()}},{key:"reverse",value:function(){this.direction=-this.direction}}],[{key:"build",value:function(n,r){return(n=L(n,r))?{el:n.element,options:n.options||{},player:new t(n.animations,n.animationSettings,n.options)}:null}}]),t}();!function(){for(var t=0,n=["ms","moz","webkit","o"],r=0;r<n.length&&!window.requestAnimationFrame;++r)window.requestAnimationFrame=window[n[r]+"RequestAnimationFrame"],window.cancelAnimationFrame=window[n[r]+"CancelAnimationFrame"]||window[n[r]+"CancelRequestAnimationFrame"];window.requestAnimationFrame||(window.requestAnimationFrame=function(n){var r=Date.now(),e=Math.max(0,16-(r-t)),i=window.setTimeout((function(){n(r+e)}),e);return t=r+e,i},window.cancelAnimationFrame=window.clearTimeout)}();var Q=/\.0+$/g;function U(t){return Number.isInteger(t)?t+"":t.toFixed(6).replace(Q,"")}function V(t){var n=arguments.length>1&&void 0!==arguments[1]?arguments[1]:" ";return t&&t.length?t.map(U).join(n):""}function $(t){return t?null==t.a||t.a>=1?"rgb("+t.r+","+t.g+","+t.b+")":"rgba("+t.r+","+t.g+","+t.b+","+t.a+")":"transparent"}var G={f:null,i:function(t,n,r){return 0===t?n:1===t?r:{x:w(t,n.x,r.x),y:w(t,n.y,r.y)}},u:function(t,n){return function(r){var e=n(r);t.setAttribute("rx",U(e.x)),t.setAttribute("ry",U(e.y))}}},H={f:null,i:function(t,n,r){return 0===t?n:1===t?r:{width:w(t,n.width,r.width),height:w(t,n.height,r.height)}},u:function(t,n){return function(r){var e=n(r);t.setAttribute("width",U(e.width)),t.setAttribute("height",U(e.height))}}},Y=Math.sin,Z=Math.cos,J=Math.acos,K=Math.asin,W=Math.tan,X=Math.atan2,tt=Math.PI/180,nt=180/Math.PI,rt=Math.sqrt,et=function(){function t(){var r=arguments.length>0&&void 0!==arguments[0]?arguments[0]:1,e=arguments.length>1&&void 0!==arguments[1]?arguments[1]:0,i=arguments.length>2&&void 0!==arguments[2]?arguments[2]:0,o=arguments.length>3&&void 0!==arguments[3]?arguments[3]:1,u=arguments.length>4&&void 0!==arguments[4]?arguments[4]:0,a=arguments.length>5&&void 0!==arguments[5]?arguments[5]:0;n(this,t),this.m=[r,e,i,o,u,a],this.i=null,this.w=null,this.s=null}return e(t,[{key:"determinant",get:function(){var t=this.m;return t[0]*t[3]-t[1]*t[2]}},{key:"isIdentity",get:function(){if(null===this.i){var t=this.m;this.i=1===t[0]&&0===t[1]&&0===t[2]&&1===t[3]&&0===t[4]&&0===t[5]}return this.i}},{key:"point",value:function(t,n){var r=this.m;return{x:r[0]*t+r[2]*n+r[4],y:r[1]*t+r[3]*n+r[5]}}},{key:"translateSelf",value:function(){var t=arguments.length>0&&void 0!==arguments[0]?arguments[0]:0,n=arguments.length>1&&void 0!==arguments[1]?arguments[1]:0;if(!t&&!n)return this;var r=this.m;return r[4]+=r[0]*t+r[2]*n,r[5]+=r[1]*t+r[3]*n,this.w=this.s=this.i=null,this}},{key:"rotateSelf",value:function(){var t=arguments.length>0&&void 0!==arguments[0]?arguments[0]:0;if(t%=360){var n=Y(t*=tt),r=Z(t),e=this.m,i=e[0],o=e[1];e[0]=i*r+e[2]*n,e[1]=o*r+e[3]*n,e[2]=e[2]*r-i*n,e[3]=e[3]*r-o*n,this.w=this.s=this.i=null}return this}},{key:"scaleSelf",value:function(){var t=arguments.length>0&&void 0!==arguments[0]?arguments[0]:1,n=arguments.length>1&&void 0!==arguments[1]?arguments[1]:1;if(1!==t||1!==n){var r=this.m;r[0]*=t,r[1]*=t,r[2]*=n,r[3]*=n,this.w=this.s=this.i=null}return this}},{key:"skewSelf",value:function(t,n){if(n%=360,(t%=360)||n){var r=this.m,e=r[0],i=r[1],o=r[2],u=r[3];t&&(t=W(t*tt),r[2]+=e*t,r[3]+=i*t),n&&(n=W(n*tt),r[0]+=o*n,r[1]+=u*n),this.w=this.s=this.i=null}return this}},{key:"resetSelf",value:function(){var t=arguments.length>0&&void 0!==arguments[0]?arguments[0]:1,n=arguments.length>1&&void 0!==arguments[1]?arguments[1]:0,r=arguments.length>2&&void 0!==arguments[2]?arguments[2]:0,e=arguments.length>3&&void 0!==arguments[3]?arguments[3]:1,i=arguments.length>4&&void 0!==arguments[4]?arguments[4]:0,o=arguments.length>5&&void 0!==arguments[5]?arguments[5]:0,u=this.m;return u[0]=t,u[1]=n,u[2]=r,u[3]=e,u[4]=i,u[5]=o,this.w=this.s=this.i=null,this}},{key:"recomposeSelf",value:function(){var t=arguments.length>0&&void 0!==arguments[0]?arguments[0]:null,n=arguments.length>1&&void 0!==arguments[1]?arguments[1]:null,r=arguments.length>2&&void 0!==arguments[2]?arguments[2]:null,e=arguments.length>3&&void 0!==arguments[3]?arguments[3]:null,i=arguments.length>4&&void 0!==arguments[4]?arguments[4]:null;return this.isIdentity||this.resetSelf(),t&&(t.x||t.y)&&this.translateSelf(t.x,t.y),n&&this.rotateSelf(n),r&&(r.x&&this.skewSelf(r.x,0),r.y&&this.skewSelf(0,r.y)),!e||1===e.x&&1===e.y||this.scaleSelf(e.x,e.y),i&&(i.x||i.y)&&this.translateSelf(i.x,i.y),this}},{key:"decompose",value:function(){var t=arguments.length>0&&void 0!==arguments[0]?arguments[0]:0,n=arguments.length>1&&void 0!==arguments[1]?arguments[1]:0,r=this.m,e=r[0]*r[0]+r[1]*r[1],i=[[r[0],r[1]],[r[2],r[3]]],o=rt(e);if(0===o)return{origin:{x:r[4],y:r[5]},translate:{x:t,y:n},scale:{x:0,y:0},skew:{x:0,y:0},rotate:0};i[0][0]/=o,i[0][1]/=o;var u=r[0]*r[3]-r[1]*r[2]<0;u&&(o=-o);var a=i[0][0]*i[1][0]+i[0][1]*i[1][1];i[1][0]-=i[0][0]*a,i[1][1]-=i[0][1]*a;var l=rt(i[1][0]*i[1][0]+i[1][1]*i[1][1]);if(0===l)return{origin:{x:r[4],y:r[5]},translate:{x:t,y:n},scale:{x:o,y:0},skew:{x:0,y:0},rotate:0};i[1][0]/=l,i[1][1]/=l,a/=l;var f=0;return i[1][1]<0?(f=J(i[1][1])*nt,i[0][1]<0&&(f=360-f)):f=K(i[0][1])*nt,u&&(f=-f),a=X(a,rt(i[0][0]*i[0][0]+i[0][1]*i[0][1]))*nt,u&&(a=-a),{origin:{x:r[4],y:r[5]},translate:{x:t,y:n},scale:{x:o,y:l},skew:{x:a,y:0},rotate:f}}},{key:"toString",value:function(){return null===this.s&&(this.s="matrix("+this.m.map(ot).join(" ")+")"),this.s}}]),t}(),it=/\.0+$/;function ot(t){return Number.isInteger(t)?t:t.toFixed(14).replace(it,"")}Object.freeze({M:2,L:2,Z:0,H:1,V:1,C:6,Q:4,T:2,S:4,A:7});function ut(t,n,r){return t+(n-t)*r}function at(t,n,r){var e=arguments.length>3&&void 0!==arguments[3]&&arguments[3],i={x:ut(t.x,n.x,r),y:ut(t.y,n.y,r)};return e&&(i.a=lt(t,n)),i}function lt(t,n){return Math.atan2(n.y-t.y,n.x-t.x)}var ft={},st=null;function ct(n){var r=function(){if(st)return st;if("object"!==("undefined"==typeof document?"undefined":t(document)))return{};var n=document.createElementNS("http://www.w3.org/2000/svg","svg");return n.style.position="absolute",n.style.opacity="0.01",n.style.zIndex="-9999",n.style.left="-9999px",n.style.width="1px",n.style.height="1px",st={svg:n}}().svg;if(!r)return function(t){return null};var e=document.createElementNS(r.namespaceURI,"path");e.setAttributeNS(null,"d",n),e.setAttributeNS(null,"fill","none"),e.setAttributeNS(null,"stroke","none"),r.appendChild(e);var i=e.getTotalLength();return function(t){var n=e.getPointAtLength(i*t);return{x:n.x,y:n.y}}}function ht(t){return ft[t]?ft[t]:ft[t]=ct(t)}function vt(t,n,r,e){if(!t||!e)return!1;var i=["M",t.x,t.y];if(n&&r&&(i.push("C"),i.push(n.x),i.push(n.y),i.push(r.x),i.push(r.y)),n?!r:r){var o=n||r;i.push("Q"),i.push(o.x),i.push(o.y)}return n||r||i.push("L"),i.push(e.x),i.push(e.y),i.join(" ")}function yt(t,n,r,e){var i=arguments.length>4&&void 0!==arguments[4]?arguments[4]:1,o=vt(t,n,r,e),u=ht(o);try{return u(i)}catch(t){return null}}function dt(t,n,r,e){var i=1-e;return i*i*t+2*i*e*n+e*e*r}function gt(t,n,r,e){return 2*(1-e)*(n-t)+2*e*(r-n)}function pt(t,n,r,e){var i=arguments.length>4&&void 0!==arguments[4]&&arguments[4],o=yt(t,n,null,r,e);return o||(o={x:dt(t.x,n.x,r.x,e),y:dt(t.y,n.y,r.y,e)}),i&&(o.a=mt(t,n,r,e)),o}function mt(t,n,r,e){return Math.atan2(gt(t.y,n.y,r.y,e),gt(t.x,n.x,r.x,e))}function bt(t,n,r,e,i){var o=i*i;return i*o*(e-t+3*(n-r))+3*o*(t+r-2*n)+3*i*(n-t)+t}function wt(t,n,r,e,i){var o=1-i;return 3*(o*o*(n-t)+2*o*i*(r-n)+i*i*(e-r))}function xt(t,n,r,e,i){var o=arguments.length>5&&void 0!==arguments[5]&&arguments[5],u=yt(t,n,r,e,i);return u||(u={x:bt(t.x,n.x,r.x,e.x,i),y:bt(t.y,n.y,r.y,e.y,i)}),o&&(u.a=kt(t,n,r,e,i)),u}function kt(t,n,r,e,i){return Math.atan2(wt(t.y,n.y,r.y,e.y,i),wt(t.x,n.x,r.x,e.x,i))}function At(t,n,r){var e=arguments.length>3&&void 0!==arguments[3]&&arguments[3];if(St(n)){if(Ot(r))return pt(n,r.start,r,t,e)}else if(St(r)){if(n.end)return pt(n,n.end,r,t,e)}else{if(n.end)return r.start?xt(n,n.end,r.start,r,t,e):pt(n,n.end,r,t,e);if(r.start)return pt(n,r.start,r,t,e)}return at(n,r,t,e)}function _t(t,n,r){var e=At(t,n,r,!0);return e.a=function(t){var n=arguments.length>1&&void 0!==arguments[1]&&arguments[1];return n?t+Math.PI:t}(e.a)/p,e}function St(t){return!t.type||"corner"===t.type}function Ot(t){return null!=t.start&&!St(t)}var Mt=new et;var jt={f:U,i:b},Ft={f:U,i:function(t,n,r){var e=b(t,n,r);return e<=0?0:e>=1?1:e}};function Pt(t,n,r,e,i,o,u,a){return n=function(t,n,r){for(var e,i,o,u=t.length-1,a={},l=0;l<=u;l++)(e=t[l]).e&&(e.e=n(e.e)),e.v&&"g"===(i=e.v).t&&i.r&&(o=r.getElementById(i.r))&&(a[i.r]=o.querySelectorAll("stop"));return a}(t,e,a),function(e){var i,o=r(e,t,It);return o?"c"===o.t?$(o.v):"g"===o.t?(n[o.r]&&function(t,n){for(var r=0,e=t.length;r<e;r++)t[r].setAttribute("stop-color",$(n[r]))}(n[o.r],o.v),(i=o.r)?"url(#"+i+")":"none"):"none":"none"}}function It(t,n,r){if(0===t)return n;if(1===t)return r;if(n&&r){var e=n.t;if(e===r.t)switch(n.t){case"c":return{t:e,v:A(t,n.v,r.v)};case"g":if(n.r===r.r)return{t:e,v:_(t,n.v,r.v),r:n.r}}}return m(t,n,r)}var Rt={fill:Pt,"fill-opacity":Ft,stroke:Pt,"stroke-opacity":Ft,"stroke-width":jt,"stroke-dashoffset":{f:U,i:b},"stroke-dasharray":{f:function(t){var n=arguments.length>1&&void 0!==arguments[1]?arguments[1]:" ";return t&&t.length>0&&(t=t.map((function(t){return Math.floor(1e4*t)/1e4}))),V(t,n)},i:function(t,n,r){var e,i,o,u=n.length,a=r.length;if(u!==a)if(0===u)n=S(u=a,0);else if(0===a)a=u,r=S(u,0);else{var l=(o=(e=u)*(i=a)/function(t,n){for(var r;n;)r=n,n=t%n,t=r;return t||1}(e,i))<0?-o:o;n=O(n,Math.floor(l/u)),r=O(r,Math.floor(l/a)),u=a=l}for(var f=[],s=0;s<u;s++)f.push(g(w(t,n[s],r[s]),6));return f}},opacity:Ft,transform:function(n,r,e,i){if(!(n=function(n,r){if(!n||"object"!==t(n))return null;var e=!1;for(var i in n)n.hasOwnProperty(i)&&(n[i]&&n[i].length?(n[i].forEach((function(t){t.e&&(t.e=r(t.e))})),e=!0):delete n[i]);return e?n:null}(n,i)))return null;var o=function(t,i,o){var u=arguments.length>3&&void 0!==arguments[3]?arguments[3]:null;return n[t]?e(i,n[t],o):r&&r[t]?r[t]:u};return r&&r.a&&n.o?function(t){var r=e(t,n.o,_t);return Mt.recomposeSelf(r,o("r",t,b,0)+r.a,o("k",t,x),o("s",t,x),o("t",t,x)).toString()}:function(t){return Mt.recomposeSelf(o("o",t,At,null),o("r",t,b,0),o("k",t,x),o("s",t,x),o("t",t,x)).toString()}},r:jt,"#size":H,"#radius":G,_:function(t,n){if(Array.isArray(t))for(var r=0;r<t.length;r++)this[t[r]]=n;else this[t]=n}};return function(t){!function(t,n){if("function"!=typeof n&&null!==n)throw new TypeError("Super expression must either be null or a function");t.prototype=Object.create(n&&n.prototype,{constructor:{value:t,writable:!0,configurable:!0}}),n&&o(t,n)}(u,t);var r=a(u);function u(){return n(this,u),r.apply(this,arguments)}return e(u,null,[{key:"build",value:function(t){var n=l(i(u),"build",this).call(this,t,Rt),r=(n.el,n.options,n.player);return function(t){t.play()}(r),r}}]),u}(D)}));
__SVGATOR_PLAYER__.build({"root":"ezafbk0jrsr1","animations":[{"duration":3000,"direction":1,"iterations":0,"fill":1,"alternate":false,"elements":{"ezafbk0jrsr9":{"transform":{"keys":{"o":[{"t":0,"v":{"x":-458.14482555,"y":-128.345167,"type":"corner"}},{"t":1500,"v":{"x":-455.14866455000003,"y":-115.3461792,"type":"corner"}},{"t":3000,"v":{"x":-458.14866455000003,"y":-128.3461792,"type":"corner"}}]}}},"ezafbk0jrsr10":{"transform":{"keys":{"o":[{"t":0,"v":{"x":-458.14658092,"y":-128.34190284000005,"type":"corner"}},{"t":1500,"v":{"x":-453.15041992,"y":-123.34673584000004,"type":"corner"}},{"t":3000,"v":{"x":-458.15041992,"y":-128.34673584000004,"type":"corner"}}]}}},"ezafbk0jrsr11":{"transform":{"keys":{"o":[{"t":0,"v":{"x":-458.148451,"y":-128.34847877,"type":"corner"}},{"t":1500,"v":{"x":-454.15229,"y":-123.35331177000003,"type":"corner"}},{"t":3000,"v":{"x":-458.15229,"y":-128.35331177000003,"type":"corner"}}]}}},"ezafbk0jrsr13":{"transform":{"keys":{"o":[{"t":0,"v":{"x":-458.14626354,"y":-128.34243873000005,"type":"corner"}},{"t":1500,"v":{"x":-453.15010254000003,"y":-123.34727173000007,"type":"corner"}},{"t":3000,"v":{"x":-458.15010254000003,"y":-128.34727173000007,"type":"corner"}}]}}}}}],"options":{"start":"load","hover":"freeze","click":"freeze","scroll":25,"exportedIds":"unique","title":"undraw_Mailbox_re_dvds"},"animationSettings":{"duration":3000,"direction":1,"iterations":0,"fill":1,"alternate":false}})]]></script></svg>